<svg width="445" height="447" viewBox="0 0 445 447" fill="none" xmlns="http://www.w3.org/2000/svg">
<path d="M181.756 14.2186L211.345 24.8519L248.867 12.4746L181.756 14.2186ZM181.267 14.3266L187.972 32.5626L210.935 24.9879L181.267 14.3266ZM181.097 14.64L177.939 35.8733L187.719 32.6466L181.097 14.64ZM249.859 12.476L242.436 35.9213L301.145 24.1573L249.859 12.476ZM211.753 24.9986L242.155 35.924L249.563 12.5266L211.753 24.9986ZM243.173 36.0453L297.519 40.8893L301.603 24.3386L243.173 36.0453ZM297.787 40.9133L315.74 42.5133L301.845 24.4666L297.787 40.9133ZM316.101 42.5453L318.664 42.7733L303.78 26.5413L316.101 42.5453ZM319.057 42.8093L337.017 44.4093L302.457 24.7039L319.057 42.8093ZM180.859 14.4333L140.581 48.196L177.656 35.9666L180.859 14.4333ZM122.715 35.308L123.765 53.7426L139.896 48.4213L180.381 14.4853L122.715 35.308ZM319.324 43.1013L332.067 56.9959L337.417 44.7133L319.324 43.1013ZM122.467 35.6519L108.351 58.8279L123.504 53.8293L122.467 35.6519ZM316.323 42.8333L330.316 61.0093L331.949 57.2639L318.931 43.0653L316.323 42.8333ZM123.781 54.0186L124.212 61.5693L139.344 48.8853L123.781 54.0186ZM330.528 61.1933L338.088 63.9586L332.147 57.4786L330.528 61.1933ZM108.136 59.18L104.491 65.1653L123.955 61.7319L123.52 54.1053L108.136 59.18ZM107.745 59.308L73.3333 70.6599L104.141 65.2266L107.745 59.308ZM122.129 35.6933L72.3493 70.7039L107.96 58.9573L122.129 35.6933ZM188.064 32.8146L202.403 71.8133L241.985 36.1466L211.341 25.1346L188.064 32.8146ZM331.051 61.6693L350.411 77.3973L338.48 64.3866L331.051 61.6693ZM338.633 64.1586L377.539 78.3893L337.665 44.8146L332.263 57.2119L338.633 64.1586ZM351.829 78.5506L368.912 92.4293L377.997 78.84L339.025 64.5853L351.829 78.5506ZM353.065 79.8973L367.075 95.176L368.761 92.6519L353.065 79.8973ZM177.895 36.1679L167.977 102.832L202.189 72.0053L187.809 32.8973L177.895 36.1679ZM124.295 61.848L167.696 102.907L177.611 36.2613L140.028 48.6586L124.295 61.848ZM124.247 62.1693L126.735 106.427L167.487 103.071L124.247 62.1693ZM168.112 103.069L214.892 106.552L202.289 72.2746L168.112 103.069ZM104.305 65.468L77.336 109.747L123.711 62.0453L104.305 65.468ZM71.6853 71.2226L76.6907 110.295L103.956 65.5293L71.6853 71.2226ZM123.979 62.1533L76.9507 110.527L126.468 106.448L123.979 62.1533ZM297.721 41.1746L280.461 111.112L330.172 61.2586L315.961 42.8L297.721 41.1746ZM242.468 36.2506L280.173 111.165L297.453 41.1506L242.468 36.2506ZM215.184 106.573L279.991 111.396L242.2 36.312L202.501 72.0826L215.184 106.573ZM71.488 71.7853L56.584 125.508L76.4653 110.629L71.488 71.7853ZM369.119 92.5986L411.415 126.963L378.204 79.0106L369.119 92.5986ZM367.259 95.3786L398.075 128.987L411.724 127.557L368.971 92.8213L367.259 95.3786ZM330.528 61.5866L340.589 134.781L366.921 95.4053L351.645 78.7453L330.528 61.5866ZM280.455 111.497L340.343 134.941L330.253 61.5546L280.455 111.497ZM367.107 95.6079L340.773 134.985L397.744 129.021L367.107 95.6079ZM398.299 129.231L407.184 138.921L411.848 127.812L398.299 129.231ZM407.383 139.139L411.835 143.993L411.92 128.328L407.383 139.139ZM168.26 103.348L229.667 146.735L214.993 106.827L168.26 103.348ZM215.285 106.848L230.005 146.881L279.836 111.652L215.285 106.848ZM168.277 103.687L198.903 150.495L229.579 146.999L168.277 103.687ZM71.1587 71.9773L22.05 151.352L56.2347 125.769L71.1587 71.9773ZM21.9369 151.771L48.5651 153.411L56.1173 126.189L21.9369 151.771ZM48.8369 153.428L52.136 153.631L76.1773 111.177L56.4667 125.928L48.8369 153.428ZM52.4323 153.649L77.9533 155.223L76.4893 111.167L52.4323 153.649ZM412.099 144.283L423.095 156.275L412.187 128.355L412.099 144.283ZM126.749 106.693L129.641 158.139L167.521 103.336L126.749 106.693ZM76.924 110.796L129.379 158.217L126.483 106.716L76.924 110.796ZM167.788 103.419L129.807 158.368L198.607 150.528L167.788 103.419ZM78.2214 155.239L129.159 158.377L76.7507 110.999L78.2214 155.239ZM341.005 135.229L397.843 161.176L407.071 139.193L397.969 129.265L341.005 135.229ZM280.541 111.817L311.819 161.948L340.26 135.195L280.541 111.817ZM48.764 153.691L45.5579 165.248L51.9902 153.889L48.764 153.691ZM199.067 150.744L208.937 165.833L229.541 147.271L199.067 150.744ZM398.085 161.287L411.705 167.505L411.832 144.385L407.269 139.409L398.085 161.287ZM311.964 162.179L325.667 184.143L340.235 135.585L311.964 162.179ZM45.3052 166.235L79.44 199.931L77.9627 155.489L52.2864 153.908L45.3052 166.235ZM21.6719 152.021L10.364 203.459L45.0194 166.191L48.4921 153.673L21.6719 152.021ZM209.084 166.059L246.249 222.867L229.859 147.344L209.084 166.059ZM411.971 167.919L411.668 222.948L434.472 212.971L429.457 175.901L411.971 167.919ZM230.088 147.149L246.552 223.011L279.976 111.88L230.088 147.149ZM280.259 111.867L246.803 223.105L311.621 162.135L280.259 111.867ZM246.816 223.459L310.461 234.823L325.564 184.483L311.764 162.365L246.816 223.459ZM129.655 158.653L123.323 242.96L208.736 166.013L198.769 150.777L129.655 158.653ZM79.716 200.203L123.053 242.984L129.387 158.659L78.2293 155.507L79.716 200.203ZM208.884 166.239L123.589 243.079L246.307 223.444L208.884 166.239ZM325.855 184.444L362.795 243.651L340.481 135.692L325.855 184.444ZM340.689 135.379L363.119 243.907L397.74 161.423L340.689 135.379ZM397.983 161.533L363.328 244.099L411.401 223.065L411.703 167.797L397.983 161.533ZM310.725 234.871L362.804 244.171L325.752 184.784L310.725 234.871ZM79.728 200.589L81.4893 253.573L122.903 243.209L79.728 200.589ZM45.3229 166.627L57.736 259.517L81.224 253.639L79.452 200.317L45.3229 166.627ZM411.667 223.24L411.444 263.755L434.352 213.315L411.667 223.24ZM363.416 244.352L411.175 264.18L411.399 223.357L363.416 244.352ZM411.48 264.32L421.085 269.509L434.171 214.36L411.48 264.32ZM45.0907 166.897L14.7109 270.283L57.476 259.583L45.0907 166.897ZM363.367 244.62L395.809 305.848L411.139 264.453L363.367 244.62ZM14.8172 270.531L64 308.409L57.512 259.848L14.8172 270.531ZM123.473 243.367L204.433 311.652L246.303 223.715L123.473 243.367ZM123.369 243.628L138.059 318.26L204.152 311.764L123.369 243.628ZM43.6312 322.269L65.952 323.015L64.0507 308.784L14.9511 270.972L43.6312 322.269ZM81.4987 253.845L83.8027 323.2L122.919 243.48L81.4987 253.845ZM64.3013 308.639L83.5453 323.46L81.2333 253.912L57.772 259.783L64.3013 308.639ZM123.111 243.695L83.9133 323.583L137.792 318.287L123.111 243.695ZM66.2227 323.023L83.2773 323.591L64.3507 309.016L66.2227 323.023ZM421.265 269.909L407.915 326.184L428.689 273.917L421.265 269.909ZM411.427 264.595L407.591 326.389L421.023 269.777L411.427 264.595ZM395.977 306.164L407.257 327.453L411.119 265.273L395.977 306.164ZM395.855 306.5L387.817 328.203L407.143 327.805L395.855 306.5ZM363.237 244.944L367.251 328.627L387.531 328.208L395.687 306.184L363.237 244.944ZM362.988 245.313L343.397 329.119L366.984 328.632L362.988 245.313ZM310.648 235.128L282.18 330.016L362.809 244.443L310.648 235.128ZM246.728 223.713L281.883 330.075L310.384 235.081L246.728 223.713ZM204.671 311.775L281.691 330.333L246.509 223.9L204.671 311.775ZM362.833 244.805L282.204 330.379L343.123 329.124L362.833 244.805ZM84.2147 323.82L143.951 349.573L137.844 318.549L84.2147 323.82ZM204.767 312.073L230.651 353.213L281.476 330.556L204.767 312.073ZM282.401 330.64L336.052 359.368L343.06 329.392L282.401 330.64ZM204.543 312.216L192.363 370.283L230.405 353.323L204.543 312.216ZM144.248 349.7L192.083 370.323L204.312 312.017L138.111 318.524L144.248 349.7ZM33.7625 322.207L71.9453 373.461L43.4719 322.531L33.7625 322.207ZM66.2587 323.291L73.0853 374.381L83.5253 323.865L66.2587 323.291ZM43.7833 322.541L72.8333 374.501L65.988 323.281L43.7833 322.541ZM387.717 328.472L369.889 376.623L407.087 328.073L387.717 328.472ZM367.264 328.893L369.559 376.748L387.431 328.477L367.264 328.893ZM336.296 359.499L369.312 377.177L366.997 328.899L343.335 329.385L336.296 359.499ZM336.232 359.767L331.053 381.919L369.023 377.324L336.232 359.767ZM282.211 330.843L310.841 384.365L330.772 381.953L335.988 359.637L282.211 330.843ZM73.212 375.092L112.111 389.556L83.7333 324.177L73.212 375.092ZM281.92 330.86L262.968 390.159L310.557 384.4L281.92 330.86ZM230.796 353.441L254.451 391.04L281.624 330.783L230.796 353.441ZM192.547 370.492L254.159 391.077L230.549 353.551L192.547 370.492ZM281.053 332.697L254.689 391.161L262.677 390.195L281.053 332.697ZM255.173 391.371L261.741 393.12L262.587 390.473L255.173 391.371ZM192.344 370.705L196.721 399.544L253.895 391.269L192.344 370.705ZM254.733 391.529L259.448 400.297L261.66 393.374L254.733 391.529ZM192.103 370.896L172.827 403.002L196.457 399.583L192.103 370.896ZM112.457 389.687L154.956 405.488L144.012 349.891L83.944 323.993L112.457 389.687ZM144.309 350.019L155.239 405.547L172.485 403.05L191.987 370.573L144.309 350.019ZM310.976 384.617L324.317 409.561L330.707 382.231L310.976 384.617ZM330.989 382.195L324.579 409.62L368.96 377.6L330.989 382.195ZM262 393.189L324.105 409.728L310.693 384.652L262.879 390.439L262 393.189ZM73.9 375.633L121.204 410.508L112.257 389.896L73.9 375.633ZM112.605 390.025L121.605 410.761L154.607 405.643L112.605 390.025ZM259.624 400.623L270.505 420.857L323.787 409.919L261.917 393.443L259.624 400.623ZM122.127 410.95L160.777 422.552L172.308 403.347L155.152 405.828L122.127 410.95ZM259.511 400.974L251.939 424.667L270.232 420.914L259.511 400.974ZM270.637 421.101L275.076 429.356L322.908 410.372L270.637 421.101ZM158.761 426.426L199.321 434.402L160.899 422.867L158.761 426.426ZM196.761 399.807L202.075 434.805L254.023 391.521L196.761 399.807ZM254.429 391.528L202.471 434.821L251.639 424.729L259.335 400.649L254.429 391.528ZM161.04 422.632L201.815 434.869L196.497 399.845L172.649 403.297L161.04 422.632ZM251.545 425.02L203.369 434.909L248.553 434.383L251.545 425.02ZM201.977 435.192L201.951 435.189L158.524 426.65L158.428 426.576L158.435 426.452L160.636 422.788L121.485 411.036L121.481 411.035L121.469 411.029L121.467 411.028H121.465H121.463L121.461 411.026L121.459 411.025L121.444 411.016L72.98 375.285L72.9787 375.284H72.9773L72.976 375.283L72.9747 375.281L72.972 375.28V375.279H72.9707L72.9667 375.275L72.9653 375.273L72.964 375.272L72.9627 375.271V375.269H72.9613V375.268L72.96 375.267H72.9587V375.265L72.9574 375.264H72.956V375.263L72.952 375.259L72.9507 375.256L33.3833 322.144L33.3719 322.004L33.4948 321.932L43.3197 322.259L14.4011 270.533L14.385 270.463V270.461V270.46V270.459L14.3902 270.431L44.8521 166.763L10.2265 203.999L10.0672 204.025L9.99841 203.879L21.4355 151.855L21.4521 151.812L21.4527 151.811H21.4531L71.4227 71.0426L71.4427 71.0186V71.0173L71.4534 71.008L71.456 71.0053L71.4627 71.0013L122.499 35.1066L122.503 35.1053L122.505 35.1039L122.507 35.1026L122.533 35.0906L180.995 13.9813L181.015 13.9746L181.041 13.972L249.761 12.1853H249.781H249.783L249.8 12.1879L301.809 24.0359L301.829 24.0413H301.831L301.851 24.0506L337.681 44.4813L337.701 44.4959L378.289 78.6706L378.315 78.7L412.165 127.579L412.179 127.6V127.601L412.183 127.611L423.603 156.843L423.549 157.004L423.381 156.98L412.097 144.675L411.972 167.627L429.636 175.691L429.711 175.793L434.749 213.032L434.751 213.067L434.747 213.084L421.329 269.639L428.92 273.74L428.98 273.907L407.485 327.983L407.484 327.985L407.483 327.988V327.989V327.991L407.481 327.992V327.993L407.467 328.017L369.563 377.487V377.488L369.561 377.489L369.56 377.491V377.492H369.559V377.493L369.532 377.516L324.448 410.041L324.417 410.06L275.064 429.647L274.897 429.585L270.363 421.157L251.845 424.959L248.779 434.556L248.652 434.648L201.981 435.192H201.977Z" fill="#FB8500"/>
<path d="M169.313 103.18C169.313 102.339 168.632 101.657 167.791 101.657C166.951 101.657 166.269 102.339 166.269 103.18C166.269 104.02 166.951 104.703 167.791 104.703C168.632 104.703 169.313 104.02 169.313 103.18Z" fill="#FB8500"/>
<path d="M413.58 127.656C413.58 126.816 412.899 126.133 412.057 126.133C411.217 126.133 410.535 126.816 410.535 127.656C410.535 128.497 411.217 129.179 412.057 129.179C412.899 129.179 413.58 128.497 413.58 127.656Z" fill="#FB8500"/>
<path d="M425.001 156.891C425.001 156.051 424.32 155.368 423.48 155.368C422.639 155.368 421.957 156.051 421.957 156.891C421.957 157.732 422.639 158.413 423.48 158.413C424.32 158.413 425.001 157.732 425.001 156.891Z" fill="#FB8500"/>
<path d="M303.305 24.1666C303.305 23.3252 302.624 22.6426 301.783 22.6426C300.941 22.6426 300.26 23.3252 300.26 24.1666C300.26 25.0066 300.941 25.6879 301.783 25.6879C302.624 25.6879 303.305 25.0066 303.305 24.1666Z" fill="#FB8500"/>
<path d="M251.291 12.3186C251.291 11.4772 250.609 10.7959 249.768 10.7959C248.927 10.7959 248.245 11.4772 248.245 12.3186C248.245 13.1599 248.927 13.8399 249.768 13.8399C250.609 13.8399 251.291 13.1599 251.291 12.3186Z" fill="#FB8500"/>
<path d="M73.0586 71.112C73.0586 70.272 72.3773 69.5893 71.5373 69.5893C70.696 69.5893 70.0146 70.272 70.0146 71.112C70.0146 71.9533 70.696 72.6346 71.5373 72.6346C72.3773 72.6346 73.0586 71.9533 73.0586 71.112Z" fill="#FB8500"/>
<path d="M46.662 166.257C46.662 165.417 45.9803 164.735 45.1396 164.735C44.2984 164.735 43.6172 165.417 43.6172 166.257C43.6172 167.099 44.2984 167.78 45.1396 167.78C45.9803 167.78 46.662 167.099 46.662 166.257Z" fill="#FB8500"/>
<path d="M78.1293 110.689C78.1293 109.848 77.448 109.167 76.6067 109.167C75.7667 109.167 75.084 109.848 75.084 110.689C75.084 111.529 75.7667 112.212 76.6067 112.212C77.448 112.212 78.1293 111.529 78.1293 110.689Z" fill="#FB8500"/>
<path d="M85.2093 323.739C85.2093 322.897 84.528 322.216 83.688 322.216C82.8466 322.216 82.1653 322.897 82.1653 323.739C82.1653 324.579 82.8466 325.261 83.688 325.261C84.528 325.261 85.2093 324.579 85.2093 323.739Z" fill="#FB8500"/>
<path d="M193.701 370.511C193.701 369.669 193.02 368.988 192.179 368.988C191.337 368.988 190.656 369.669 190.656 370.511C190.656 371.351 191.337 372.033 192.179 372.033C193.02 372.033 193.701 371.351 193.701 370.511Z" fill="#FB8500"/>
<path d="M206.003 311.867C206.003 311.025 205.32 310.344 204.48 310.344C203.639 310.344 202.957 311.025 202.957 311.867C202.957 312.707 203.639 313.389 204.48 313.389C205.32 313.389 206.003 312.707 206.003 311.867Z" fill="#FB8500"/>
<path d="M85.2093 323.739C85.2093 322.897 84.528 322.216 83.688 322.216C82.8466 322.216 82.1653 322.897 82.1653 323.739C82.1653 324.579 82.8466 325.261 83.688 325.261C84.528 325.261 85.2093 324.579 85.2093 323.739Z" fill="#FB8500"/>
<path d="M124.687 243.281C124.687 242.441 124.005 241.759 123.165 241.759C122.324 241.759 121.643 242.441 121.643 243.281C121.643 244.123 122.324 244.804 123.165 244.804C124.005 244.804 124.687 244.123 124.687 243.281Z" fill="#FB8500"/>
<path d="M156.656 405.697C156.656 404.856 155.973 404.174 155.133 404.174C154.292 404.174 153.611 404.856 153.611 405.697C153.611 406.537 154.292 407.219 155.133 407.219C155.973 407.219 156.656 406.537 156.656 405.697Z" fill="#FB8500"/>
<path d="M255.992 391.321C255.992 390.481 255.311 389.799 254.471 389.799C253.629 389.799 252.948 390.481 252.948 391.321C252.948 392.162 253.629 392.844 254.471 392.844C255.311 392.844 255.992 392.162 255.992 391.321Z" fill="#FB8500"/>
<path d="M203.5 435.059C203.5 434.217 202.819 433.536 201.977 433.536C201.137 433.536 200.456 434.217 200.456 435.059C200.456 435.9 201.137 436.581 201.977 436.581C202.819 436.581 203.5 435.9 203.5 435.059Z" fill="#FB8500"/>
<path d="M193.701 370.511C193.701 369.669 193.02 368.988 192.179 368.988C191.337 368.988 190.656 369.669 190.656 370.511C190.656 371.351 191.337 372.033 192.179 372.033C193.02 372.033 193.701 371.351 193.701 370.511Z" fill="#FB8500"/>
<path d="M160.072 426.521C160.072 425.68 159.391 424.998 158.549 424.998C157.708 424.998 157.027 425.68 157.027 426.521C157.027 427.361 157.708 428.044 158.549 428.044C159.391 428.044 160.072 427.361 160.072 426.521Z" fill="#FB8500"/>
<path d="M203.5 435.059C203.5 434.217 202.819 433.536 201.977 433.536C201.137 433.536 200.456 434.217 200.456 435.059C200.456 435.9 201.137 436.581 201.977 436.581C202.819 436.581 203.5 435.9 203.5 435.059Z" fill="#FB8500"/>
<path d="M123.047 410.909C123.047 410.068 122.365 409.386 121.524 409.386C120.683 409.386 120.001 410.068 120.001 410.909C120.001 411.75 120.683 412.432 121.524 412.432C122.365 412.432 123.047 411.75 123.047 410.909Z" fill="#FB8500"/>
<path d="M156.656 405.697C156.656 404.856 155.973 404.174 155.133 404.174C154.292 404.174 153.611 404.856 153.611 405.697C153.611 406.537 154.292 407.219 155.133 407.219C155.973 407.219 156.656 406.537 156.656 405.697Z" fill="#FB8500"/>
<path d="M74.58 375.177C74.58 374.336 73.8987 373.655 73.0573 373.655C72.2173 373.655 71.536 374.336 71.536 375.177C71.536 376.019 72.2173 376.7 73.0573 376.7C73.8987 376.7 74.58 376.019 74.58 375.177Z" fill="#FB8500"/>
<path d="M123.047 410.909C123.047 410.068 122.365 409.386 121.524 409.386C120.683 409.386 120.001 410.068 120.001 410.909C120.001 411.75 120.683 412.432 121.524 412.432C122.365 412.432 123.047 411.75 123.047 410.909Z" fill="#FB8500"/>
<path d="M85.2093 323.739C85.2093 322.897 84.528 322.216 83.688 322.216C82.8466 322.216 82.1653 322.897 82.1653 323.739C82.1653 324.579 82.8466 325.261 83.688 325.261C84.528 325.261 85.2093 324.579 85.2093 323.739Z" fill="#FB8500"/>
<path d="M74.58 375.177C74.58 374.336 73.8987 373.655 73.0573 373.655C72.2173 373.655 71.536 374.336 71.536 375.177C71.536 376.019 72.2173 376.7 73.0573 376.7C73.8987 376.7 74.58 376.019 74.58 375.177Z" fill="#FB8500"/>
<path d="M35.0131 322.065C35.0131 321.224 34.3312 320.543 33.4907 320.543C32.6495 320.543 31.9683 321.224 31.9683 322.065C31.9683 322.907 32.6495 323.588 33.4907 323.588C34.3312 323.588 35.0131 322.907 35.0131 322.065Z" fill="#FB8500"/>
<path d="M85.2093 323.739C85.2093 322.897 84.528 322.216 83.688 322.216C82.8466 322.216 82.1653 322.897 82.1653 323.739C82.1653 324.579 82.8466 325.261 83.688 325.261C84.528 325.261 85.2093 324.579 85.2093 323.739Z" fill="#FB8500"/>
<path d="M16.0402 270.469C16.0402 269.628 15.3584 268.947 14.5178 268.947C13.6771 268.947 12.9954 269.628 12.9954 270.469C12.9954 271.311 13.6771 271.992 14.5178 271.992C15.3584 271.992 16.0402 271.311 16.0402 270.469Z" fill="#FB8500"/>
<path d="M74.58 375.177C74.58 374.336 73.8987 373.655 73.0573 373.655C72.2173 373.655 71.536 374.336 71.536 375.177C71.536 376.019 72.2173 376.7 73.0573 376.7C73.8987 376.7 74.58 376.019 74.58 375.177Z" fill="#FB8500"/>
<path d="M46.662 166.257C46.662 165.417 45.9803 164.735 45.1396 164.735C44.2984 164.735 43.6172 165.417 43.6172 166.257C43.6172 167.099 44.2984 167.78 45.1396 167.78C45.9803 167.78 46.662 167.099 46.662 166.257Z" fill="#FB8500"/>
<path d="M124.687 243.281C124.687 242.441 124.005 241.759 123.165 241.759C122.324 241.759 121.643 242.441 121.643 243.281C121.643 244.123 122.324 244.804 123.165 244.804C124.005 244.804 124.687 244.123 124.687 243.281Z" fill="#FB8500"/>
<path d="M16.0402 270.469C16.0402 269.628 15.3584 268.947 14.5178 268.947C13.6771 268.947 12.9954 269.628 12.9954 270.469C12.9954 271.311 13.6771 271.992 14.5178 271.992C15.3584 271.992 16.0402 271.311 16.0402 270.469Z" fill="#FB8500"/>
<path d="M46.662 166.257C46.662 165.417 45.9803 164.735 45.1396 164.735C44.2984 164.735 43.6172 165.417 43.6172 166.257C43.6172 167.099 44.2984 167.78 45.1396 167.78C45.9803 167.78 46.662 167.099 46.662 166.257Z" fill="#FB8500"/>
<path d="M11.6516 203.908C11.6516 203.067 10.9697 202.385 10.1292 202.385C9.28801 202.385 8.60681 203.067 8.60681 203.908C8.60681 204.748 9.28801 205.429 10.1292 205.429C10.9697 205.429 11.6516 204.748 11.6516 203.908Z" fill="#FB8500"/>
<path d="M23.0885 151.881C23.0885 151.04 22.4073 150.359 21.5661 150.359C20.7254 150.359 20.0437 151.04 20.0437 151.881C20.0437 152.721 20.7254 153.403 21.5661 153.403C22.4073 153.403 23.0885 152.721 23.0885 151.881Z" fill="#FB8500"/>
<path d="M131.052 158.533C131.052 157.693 130.371 157.012 129.529 157.012C128.689 157.012 128.007 157.693 128.007 158.533C128.007 159.375 128.689 160.056 129.529 160.056C130.371 160.056 131.052 159.375 131.052 158.533Z" fill="#FB8500"/>
<path d="M124.687 243.281C124.687 242.441 124.005 241.759 123.165 241.759C122.324 241.759 121.643 242.441 121.643 243.281C121.643 244.123 122.324 244.804 123.165 244.804C124.005 244.804 124.687 244.123 124.687 243.281Z" fill="#FB8500"/>
<path d="M206.003 311.867C206.003 311.025 205.32 310.344 204.48 310.344C203.639 310.344 202.957 311.025 202.957 311.867C202.957 312.707 203.639 313.389 204.48 313.389C205.32 313.389 206.003 312.707 206.003 311.867Z" fill="#FB8500"/>
<path d="M255.992 391.321C255.992 390.481 255.311 389.799 254.471 389.799C253.629 389.799 252.948 390.481 252.948 391.321C252.948 392.162 253.629 392.844 254.471 392.844C255.311 392.844 255.992 392.162 255.992 391.321Z" fill="#FB8500"/>
<path d="M193.701 370.511C193.701 369.669 193.02 368.988 192.179 368.988C191.337 368.988 190.656 369.669 190.656 370.511C190.656 371.351 191.337 372.033 192.179 372.033C193.02 372.033 193.701 371.351 193.701 370.511Z" fill="#FB8500"/>
<path d="M283.412 330.517C283.412 329.677 282.731 328.996 281.889 328.996C281.049 328.996 280.367 329.677 280.367 330.517C280.367 331.359 281.049 332.04 281.889 332.04C282.731 332.04 283.412 331.359 283.412 330.517Z" fill="#FB8500"/>
<path d="M206.003 311.867C206.003 311.025 205.32 310.344 204.48 310.344C203.639 310.344 202.957 311.025 202.957 311.867C202.957 312.707 203.639 313.389 204.48 313.389C205.32 313.389 206.003 312.707 206.003 311.867Z" fill="#FB8500"/>
<path d="M248.055 223.543C248.055 222.701 247.372 222.02 246.532 222.02C245.691 222.02 245.009 222.701 245.009 223.543C245.009 224.384 245.691 225.065 246.532 225.065C247.372 225.065 248.055 224.384 248.055 223.543Z" fill="#FB8500"/>
<path d="M124.687 243.281C124.687 242.441 124.005 241.759 123.165 241.759C122.324 241.759 121.643 242.441 121.643 243.281C121.643 244.123 122.324 244.804 123.165 244.804C124.005 244.804 124.687 244.123 124.687 243.281Z" fill="#FB8500"/>
<path d="M231.463 147.091C231.463 146.251 230.78 145.568 229.94 145.568C229.099 145.568 228.417 146.251 228.417 147.091C228.417 147.932 229.099 148.613 229.94 148.613C230.78 148.613 231.463 147.932 231.463 147.091Z" fill="#FB8500"/>
<path d="M131.052 158.533C131.052 157.693 130.371 157.012 129.529 157.012C128.689 157.012 128.007 157.693 128.007 158.533C128.007 159.375 128.689 160.056 129.529 160.056C130.371 160.056 131.052 159.375 131.052 158.533Z" fill="#FB8500"/>
<path d="M78.1293 110.689C78.1293 109.848 77.448 109.167 76.6067 109.167C75.7667 109.167 75.084 109.848 75.084 110.689C75.084 111.529 75.7667 112.212 76.6067 112.212C77.448 112.212 78.1293 111.529 78.1293 110.689Z" fill="#FB8500"/>
<path d="M23.0885 151.881C23.0885 151.04 22.4073 150.359 21.5661 150.359C20.7254 150.359 20.0437 151.04 20.0437 151.881C20.0437 152.721 20.7254 153.403 21.5661 153.403C22.4073 153.403 23.0885 152.721 23.0885 151.881Z" fill="#FB8500"/>
<path d="M73.0586 71.112C73.0586 70.272 72.3773 69.5893 71.5373 69.5893C70.696 69.5893 70.0146 70.272 70.0146 71.112C70.0146 71.9533 70.696 72.6346 71.5373 72.6346C72.3773 72.6346 73.0586 71.9533 73.0586 71.112Z" fill="#FB8500"/>
<path d="M78.1293 110.689C78.1293 109.848 77.448 109.167 76.6067 109.167C75.7667 109.167 75.084 109.848 75.084 110.689C75.084 111.529 75.7667 112.212 76.6067 112.212C77.448 112.212 78.1293 111.529 78.1293 110.689Z" fill="#FB8500"/>
<path d="M169.313 103.18C169.313 102.339 168.632 101.657 167.791 101.657C166.951 101.657 166.269 102.339 166.269 103.18C166.269 104.02 166.951 104.703 167.791 104.703C168.632 104.703 169.313 104.02 169.313 103.18Z" fill="#FB8500"/>
<path d="M131.052 158.533C131.052 157.693 130.371 157.012 129.529 157.012C128.689 157.012 128.007 157.693 128.007 158.533C128.007 159.375 128.689 160.056 129.529 160.056C130.371 160.056 131.052 159.375 131.052 158.533Z" fill="#FB8500"/>
<path d="M125.617 61.8426C125.617 61.0012 124.935 60.3199 124.095 60.3199C123.253 60.3199 122.572 61.0012 122.572 61.8426C122.572 62.6839 123.253 63.3652 124.095 63.3652C124.935 63.3652 125.617 62.6839 125.617 61.8426Z" fill="#FB8500"/>
<path d="M78.1293 110.689C78.1293 109.848 77.448 109.167 76.6067 109.167C75.7667 109.167 75.084 109.848 75.084 110.689C75.084 111.529 75.7667 112.212 76.6067 112.212C77.448 112.212 78.1293 111.529 78.1293 110.689Z" fill="#FB8500"/>
<path d="M124.097 35.216C124.097 34.376 123.416 33.6946 122.576 33.6946C121.735 33.6946 121.053 34.376 121.053 35.216C121.053 36.0573 121.735 36.7386 122.576 36.7386C123.416 36.7386 124.097 36.0573 124.097 35.216Z" fill="#FB8500"/>
<path d="M73.0586 71.112C73.0586 70.272 72.3773 69.5893 71.5373 69.5893C70.696 69.5893 70.0146 70.272 70.0146 71.112C70.0146 71.9533 70.696 72.6346 71.5373 72.6346C72.3773 72.6346 73.0586 71.9533 73.0586 71.112Z" fill="#FB8500"/>
<path d="M125.617 61.8426C125.617 61.0012 124.935 60.3199 124.095 60.3199C123.253 60.3199 122.572 61.0012 122.572 61.8426C122.572 62.6839 123.253 63.3652 124.095 63.3652C124.935 63.3652 125.617 62.6839 125.617 61.8426Z" fill="#FB8500"/>
<path d="M124.097 35.216C124.097 34.376 123.416 33.6946 122.576 33.6946C121.735 33.6946 121.053 34.376 121.053 35.216C121.053 36.0573 121.735 36.7386 122.576 36.7386C123.416 36.7386 124.097 36.0573 124.097 35.216Z" fill="#FB8500"/>
<path d="M182.565 14.1053C182.565 13.2639 181.884 12.5826 181.043 12.5826C180.201 12.5826 179.52 13.2639 179.52 14.1053C179.52 14.9453 180.201 15.6266 181.043 15.6266C181.884 15.6266 182.565 14.9453 182.565 14.1053Z" fill="#FB8500"/>
<path d="M125.617 61.8426C125.617 61.0012 124.935 60.3199 124.095 60.3199C123.253 60.3199 122.572 61.0012 122.572 61.8426C122.572 62.6839 123.253 63.3652 124.095 63.3652C124.935 63.3652 125.617 62.6839 125.617 61.8426Z" fill="#FB8500"/>
<path d="M169.313 103.18C169.313 102.339 168.632 101.657 167.791 101.657C166.951 101.657 166.269 102.339 166.269 103.18C166.269 104.02 166.951 104.703 167.791 104.703C168.632 104.703 169.313 104.02 169.313 103.18Z" fill="#FB8500"/>
<path d="M248.055 223.543C248.055 222.701 247.372 222.02 246.532 222.02C245.691 222.02 245.009 222.701 245.009 223.543C245.009 224.384 245.691 225.065 246.532 225.065C247.372 225.065 248.055 224.384 248.055 223.543Z" fill="#FB8500"/>
<path d="M283.412 330.517C283.412 329.677 282.731 328.996 281.889 328.996C281.049 328.996 280.367 329.677 280.367 330.517C280.367 331.359 281.049 332.04 281.889 332.04C282.731 332.04 283.412 331.359 283.412 330.517Z" fill="#FB8500"/>
<path d="M250.173 434.516C250.173 433.674 249.492 432.993 248.652 432.993C247.811 432.993 247.129 433.674 247.129 434.516C247.129 435.356 247.811 436.038 248.652 436.038C249.492 436.038 250.173 435.356 250.173 434.516Z" fill="#FB8500"/>
<path d="M203.5 435.059C203.5 434.217 202.819 433.536 201.977 433.536C201.137 433.536 200.456 434.217 200.456 435.059C200.456 435.9 201.137 436.581 201.977 436.581C202.819 436.581 203.5 435.9 203.5 435.059Z" fill="#FB8500"/>
<path d="M325.889 409.936C325.889 409.096 325.208 408.414 324.367 408.414C323.527 408.414 322.844 409.096 322.844 409.936C322.844 410.777 323.527 411.459 324.367 411.459C325.208 411.459 325.889 410.777 325.889 409.936Z" fill="#FB8500"/>
<path d="M283.412 330.517C283.412 329.677 282.731 328.996 281.889 328.996C281.049 328.996 280.367 329.677 280.367 330.517C280.367 331.359 281.049 332.04 281.889 332.04C282.731 332.04 283.412 331.359 283.412 330.517Z" fill="#FB8500"/>
<path d="M255.992 391.321C255.992 390.481 255.311 389.799 254.471 389.799C253.629 389.799 252.948 390.481 252.948 391.321C252.948 392.162 253.629 392.844 254.471 392.844C255.311 392.844 255.992 392.162 255.992 391.321Z" fill="#FB8500"/>
<path d="M276.537 429.524C276.537 428.683 275.856 428.002 275.015 428.002C274.173 428.002 273.492 428.683 273.492 429.524C273.492 430.365 274.173 431.047 275.015 431.047C275.856 431.047 276.537 430.365 276.537 429.524Z" fill="#FB8500"/>
<path d="M325.889 409.936C325.889 409.096 325.208 408.414 324.367 408.414C323.527 408.414 322.844 409.096 322.844 409.936C322.844 410.777 323.527 411.459 324.367 411.459C325.208 411.459 325.889 410.777 325.889 409.936Z" fill="#FB8500"/>
<path d="M255.992 391.321C255.992 390.481 255.311 389.799 254.471 389.799C253.629 389.799 252.948 390.481 252.948 391.321C252.948 392.162 253.629 392.844 254.471 392.844C255.311 392.844 255.992 392.162 255.992 391.321Z" fill="#FB8500"/>
<path d="M370.98 377.407C370.98 376.567 370.299 375.884 369.457 375.884C368.617 375.884 367.935 376.567 367.935 377.407C367.935 378.248 368.617 378.929 369.457 378.929C370.299 378.929 370.98 378.248 370.98 377.407Z" fill="#FB8500"/>
<path d="M364.599 244.355C364.599 243.513 363.917 242.832 363.076 242.832C362.235 242.832 361.553 243.513 361.553 244.355C361.553 245.195 362.235 245.876 363.076 245.876C363.917 245.876 364.599 245.195 364.599 244.355Z" fill="#FB8500"/>
<path d="M325.889 409.936C325.889 409.096 325.208 408.414 324.367 408.414C323.527 408.414 322.844 409.096 322.844 409.936C322.844 410.777 323.527 411.459 324.367 411.459C325.208 411.459 325.889 410.777 325.889 409.936Z" fill="#FB8500"/>
<path d="M370.98 377.407C370.98 376.567 370.299 375.884 369.457 375.884C368.617 375.884 367.935 376.567 367.935 377.407C367.935 378.248 368.617 378.929 369.457 378.929C370.299 378.929 370.98 378.248 370.98 377.407Z" fill="#FB8500"/>
<path d="M283.412 330.517C283.412 329.677 282.731 328.996 281.889 328.996C281.049 328.996 280.367 329.677 280.367 330.517C280.367 331.359 281.049 332.04 281.889 332.04C282.731 332.04 283.412 331.359 283.412 330.517Z" fill="#FB8500"/>
<path d="M408.884 327.935C408.884 327.093 408.203 326.412 407.361 326.412C406.521 326.412 405.84 327.093 405.84 327.935C405.84 328.775 406.521 329.457 407.361 329.457C408.203 329.457 408.884 328.775 408.884 327.935Z" fill="#FB8500"/>
<path d="M370.98 377.407C370.98 376.567 370.299 375.884 369.457 375.884C368.617 375.884 367.935 376.567 367.935 377.407C367.935 378.248 368.617 378.929 369.457 378.929C370.299 378.929 370.98 378.248 370.98 377.407Z" fill="#FB8500"/>
<path d="M412.829 264.379C412.829 263.537 412.148 262.856 411.307 262.856C410.467 262.856 409.784 263.537 409.784 264.379C409.784 265.22 410.467 265.901 411.307 265.901C412.148 265.901 412.829 265.22 412.829 264.379Z" fill="#FB8500"/>
<path d="M430.379 273.857C430.379 273.016 429.697 272.335 428.856 272.335C428.016 272.335 427.333 273.016 427.333 273.857C427.333 274.697 428.016 275.38 428.856 275.38C429.697 275.38 430.379 274.697 430.379 273.857Z" fill="#FB8500"/>
<path d="M408.884 327.935C408.884 327.093 408.203 326.412 407.361 326.412C406.521 326.412 405.84 327.093 405.84 327.935C405.84 328.775 406.521 329.457 407.361 329.457C408.203 329.457 408.884 328.775 408.884 327.935Z" fill="#FB8500"/>
<path d="M436.14 213.052C436.14 212.212 435.459 211.529 434.617 211.529C433.777 211.529 433.095 212.212 433.095 213.052C433.095 213.893 433.777 214.575 434.617 214.575C435.459 214.575 436.14 213.893 436.14 213.052Z" fill="#FB8500"/>
<path d="M412.829 264.379C412.829 263.537 412.148 262.856 411.307 262.856C410.467 262.856 409.784 263.537 409.784 264.379C409.784 265.22 410.467 265.901 411.307 265.901C412.148 265.901 412.829 265.22 412.829 264.379Z" fill="#FB8500"/>
<path d="M408.884 327.935C408.884 327.093 408.203 326.412 407.361 326.412C406.521 326.412 405.84 327.093 405.84 327.935C405.84 328.775 406.521 329.457 407.361 329.457C408.203 329.457 408.884 328.775 408.884 327.935Z" fill="#FB8500"/>
<path d="M364.599 244.355C364.599 243.513 363.917 242.832 363.076 242.832C362.235 242.832 361.553 243.513 361.553 244.355C361.553 245.195 362.235 245.876 363.076 245.876C363.917 245.876 364.599 245.195 364.599 244.355Z" fill="#FB8500"/>
<path d="M283.412 330.517C283.412 329.677 282.731 328.996 281.889 328.996C281.049 328.996 280.367 329.677 280.367 330.517C280.367 331.359 281.049 332.04 281.889 332.04C282.731 332.04 283.412 331.359 283.412 330.517Z" fill="#FB8500"/>
<path d="M342.028 135.148C342.028 134.307 341.345 133.625 340.505 133.625C339.664 133.625 338.983 134.307 338.983 135.148C338.983 135.988 339.664 136.671 340.505 136.671C341.345 136.671 342.028 135.988 342.028 135.148Z" fill="#FB8500"/>
<path d="M248.055 223.543C248.055 222.701 247.372 222.02 246.532 222.02C245.691 222.02 245.009 222.701 245.009 223.543C245.009 224.384 245.691 225.065 246.532 225.065C247.372 225.065 248.055 224.384 248.055 223.543Z" fill="#FB8500"/>
<path d="M364.599 244.355C364.599 243.513 363.917 242.832 363.076 242.832C362.235 242.832 361.553 243.513 361.553 244.355C361.553 245.195 362.235 245.876 363.076 245.876C363.917 245.876 364.599 245.195 364.599 244.355Z" fill="#FB8500"/>
<path d="M281.739 111.547C281.739 110.707 281.057 110.024 280.216 110.024C279.375 110.024 278.693 110.707 278.693 111.547C278.693 112.388 279.375 113.069 280.216 113.069C281.057 113.069 281.739 112.388 281.739 111.547Z" fill="#FB8500"/>
<path d="M231.463 147.091C231.463 146.251 230.78 145.568 229.94 145.568C229.099 145.568 228.417 146.251 228.417 147.091C228.417 147.932 229.099 148.613 229.94 148.613C230.78 148.613 231.463 147.932 231.463 147.091Z" fill="#FB8500"/>
<path d="M248.055 223.543C248.055 222.701 247.372 222.02 246.532 222.02C245.691 222.02 245.009 222.701 245.009 223.543C245.009 224.384 245.691 225.065 246.532 225.065C247.372 225.065 248.055 224.384 248.055 223.543Z" fill="#FB8500"/>
<path d="M281.739 111.547C281.739 110.707 281.057 110.024 280.216 110.024C279.375 110.024 278.693 110.707 278.693 111.547C278.693 112.388 279.375 113.069 280.216 113.069C281.057 113.069 281.739 112.388 281.739 111.547Z" fill="#FB8500"/>
<path d="M169.313 103.18C169.313 102.339 168.632 101.657 167.791 101.657C166.951 101.657 166.269 102.339 166.269 103.18C166.269 104.02 166.951 104.703 167.791 104.703C168.632 104.703 169.313 104.02 169.313 103.18Z" fill="#FB8500"/>
<path d="M231.463 147.091C231.463 146.251 230.78 145.568 229.94 145.568C229.099 145.568 228.417 146.251 228.417 147.091C228.417 147.932 229.099 148.613 229.94 148.613C230.78 148.613 231.463 147.932 231.463 147.091Z" fill="#FB8500"/>
<path d="M182.565 14.1053C182.565 13.2639 181.884 12.5826 181.043 12.5826C180.201 12.5826 179.52 13.2639 179.52 14.1053C179.52 14.9453 180.201 15.6266 181.043 15.6266C181.884 15.6266 182.565 14.9453 182.565 14.1053Z" fill="#FB8500"/>
<path d="M169.313 103.18C169.313 102.339 168.632 101.657 167.791 101.657C166.951 101.657 166.269 102.339 166.269 103.18C166.269 104.02 166.951 104.703 167.791 104.703C168.632 104.703 169.313 104.02 169.313 103.18Z" fill="#FB8500"/>
<path d="M243.763 36.0959C243.763 35.2559 243.081 34.5732 242.24 34.5732C241.4 34.5732 240.717 35.2559 240.717 36.0959C240.717 36.9372 241.4 37.6186 242.24 37.6186C243.081 37.6186 243.763 36.9372 243.763 36.0959Z" fill="#FB8500"/>
<path d="M251.291 12.3186C251.291 11.4772 250.609 10.7959 249.768 10.7959C248.927 10.7959 248.245 11.4772 248.245 12.3186C248.245 13.1599 248.927 13.8399 249.768 13.8399C250.609 13.8399 251.291 13.1599 251.291 12.3186Z" fill="#FB8500"/>
<path d="M182.565 14.1053C182.565 13.2639 181.884 12.5826 181.043 12.5826C180.201 12.5826 179.52 13.2639 179.52 14.1053C179.52 14.9453 180.201 15.6266 181.043 15.6266C181.884 15.6266 182.565 14.9453 182.565 14.1053Z" fill="#FB8500"/>
<path d="M243.763 36.0959C243.763 35.2559 243.081 34.5732 242.24 34.5732C241.4 34.5732 240.717 35.2559 240.717 36.0959C240.717 36.9372 241.4 37.6186 242.24 37.6186C243.081 37.6186 243.763 36.9372 243.763 36.0959Z" fill="#FB8500"/>
<path d="M281.739 111.547C281.739 110.707 281.057 110.024 280.216 110.024C279.375 110.024 278.693 110.707 278.693 111.547C278.693 112.388 279.375 113.069 280.216 113.069C281.057 113.069 281.739 112.388 281.739 111.547Z" fill="#FB8500"/>
<path d="M303.305 24.1666C303.305 23.3252 302.624 22.6426 301.783 22.6426C300.941 22.6426 300.26 23.3252 300.26 24.1666C300.26 25.0066 300.941 25.6879 301.783 25.6879C302.624 25.6879 303.305 25.0066 303.305 24.1666Z" fill="#FB8500"/>
<path d="M243.763 36.0959C243.763 35.2559 243.081 34.5732 242.24 34.5732C241.4 34.5732 240.717 35.2559 240.717 36.0959C240.717 36.9372 241.4 37.6186 242.24 37.6186C243.081 37.6186 243.763 36.9372 243.763 36.0959Z" fill="#FB8500"/>
<path d="M339.137 44.5972C339.137 43.7559 338.456 43.0746 337.615 43.0746C336.773 43.0746 336.092 43.7559 336.092 44.5972C336.092 45.4372 336.773 46.1186 337.615 46.1186C338.456 46.1186 339.137 45.4372 339.137 44.5972Z" fill="#FB8500"/>
<path d="M303.305 24.1666C303.305 23.3252 302.624 22.6426 301.783 22.6426C300.941 22.6426 300.26 23.3252 300.26 24.1666C300.26 25.0066 300.941 25.6879 301.783 25.6879C302.624 25.6879 303.305 25.0066 303.305 24.1666Z" fill="#FB8500"/>
<path d="M331.872 61.2706C331.872 60.4293 331.191 59.7479 330.349 59.7479C329.508 59.7479 328.827 60.4293 328.827 61.2706C328.827 62.1106 329.508 62.7932 330.349 62.7932C331.191 62.7932 331.872 62.1106 331.872 61.2706Z" fill="#FB8500"/>
<path d="M339.137 44.5972C339.137 43.7559 338.456 43.0746 337.615 43.0746C336.773 43.0746 336.092 43.7559 336.092 44.5972C336.092 45.4372 336.773 46.1186 337.615 46.1186C338.456 46.1186 339.137 45.4372 339.137 44.5972Z" fill="#FB8500"/>
<path d="M379.725 78.7732C379.725 77.9319 379.044 77.2506 378.203 77.2506C377.361 77.2506 376.68 77.9319 376.68 78.7732C376.68 79.6146 377.361 80.2959 378.203 80.2959C379.044 80.2959 379.725 79.6146 379.725 78.7732Z" fill="#FB8500"/>
<path d="M331.872 61.2706C331.872 60.4293 331.191 59.7479 330.349 59.7479C329.508 59.7479 328.827 60.4293 328.827 61.2706C328.827 62.1106 329.508 62.7932 330.349 62.7932C331.191 62.7932 331.872 62.1106 331.872 61.2706Z" fill="#FB8500"/>
<path d="M281.739 111.547C281.739 110.707 281.057 110.024 280.216 110.024C279.375 110.024 278.693 110.707 278.693 111.547C278.693 112.388 279.375 113.069 280.216 113.069C281.057 113.069 281.739 112.388 281.739 111.547Z" fill="#FB8500"/>
<path d="M342.028 135.148C342.028 134.307 341.345 133.625 340.505 133.625C339.664 133.625 338.983 134.307 338.983 135.148C338.983 135.988 339.664 136.671 340.505 136.671C341.345 136.671 342.028 135.988 342.028 135.148Z" fill="#FB8500"/>
<path d="M364.599 244.355C364.599 243.513 363.917 242.832 363.076 242.832C362.235 242.832 361.553 243.513 361.553 244.355C361.553 245.195 362.235 245.876 363.076 245.876C363.917 245.876 364.599 245.195 364.599 244.355Z" fill="#FB8500"/>
<path d="M412.829 264.379C412.829 263.537 412.148 262.856 411.307 262.856C410.467 262.856 409.784 263.537 409.784 264.379C409.784 265.22 410.467 265.901 411.307 265.901C412.148 265.901 412.829 265.22 412.829 264.379Z" fill="#FB8500"/>
<path d="M413.58 127.656C413.58 126.816 412.899 126.133 412.057 126.133C411.217 126.133 410.535 126.816 410.535 127.656C410.535 128.497 411.217 129.179 412.057 129.179C412.899 129.179 413.58 128.497 413.58 127.656Z" fill="#FB8500"/>
<path d="M331.872 61.2706C331.872 60.4293 331.191 59.7479 330.349 59.7479C329.508 59.7479 328.827 60.4293 328.827 61.2706C328.827 62.1106 329.508 62.7932 330.349 62.7932C331.191 62.7932 331.872 62.1106 331.872 61.2706Z" fill="#FB8500"/>
<path d="M379.725 78.7732C379.725 77.9319 379.044 77.2506 378.203 77.2506C377.361 77.2506 376.68 77.9319 376.68 78.7732C376.68 79.6146 377.361 80.2959 378.203 80.2959C379.044 80.2959 379.725 79.6146 379.725 78.7732Z" fill="#FB8500"/>
<path d="M342.028 135.148C342.028 134.307 341.345 133.625 340.505 133.625C339.664 133.625 338.983 134.307 338.983 135.148C338.983 135.988 339.664 136.671 340.505 136.671C341.345 136.671 342.028 135.988 342.028 135.148Z" fill="#FB8500"/>
<path d="M413.58 127.656C413.58 126.816 412.899 126.133 412.057 126.133C411.217 126.133 410.535 126.816 410.535 127.656C410.535 128.497 411.217 129.179 412.057 129.179C412.899 129.179 413.58 128.497 413.58 127.656Z" fill="#FB8500"/>
<path d="M342.028 135.148C342.028 134.307 341.345 133.625 340.505 133.625C339.664 133.625 338.983 134.307 338.983 135.148C338.983 135.988 339.664 136.671 340.505 136.671C341.345 136.671 342.028 135.988 342.028 135.148Z" fill="#FB8500"/>
<path d="M431.101 175.811C431.101 174.971 430.42 174.289 429.579 174.289C428.739 174.289 428.057 174.971 428.057 175.811C428.057 176.652 428.739 177.333 429.579 177.333C430.42 177.333 431.101 176.652 431.101 175.811Z" fill="#FB8500"/>
<path d="M436.14 213.052C436.14 212.212 435.459 211.529 434.617 211.529C433.777 211.529 433.095 212.212 433.095 213.052C433.095 213.893 433.777 214.575 434.617 214.575C435.459 214.575 436.14 213.893 436.14 213.052Z" fill="#FB8500"/>
<path d="M364.599 244.355C364.599 243.513 363.917 242.832 363.076 242.832C362.235 242.832 361.553 243.513 361.553 244.355C361.553 245.195 362.235 245.876 363.076 245.876C363.917 245.876 364.599 245.195 364.599 244.355Z" fill="#FB8500"/>
<path d="M413.58 127.656C413.58 126.816 412.899 126.133 412.057 126.133C411.217 126.133 410.535 126.816 410.535 127.656C410.535 128.497 411.217 129.179 412.057 129.179C412.899 129.179 413.58 128.497 413.58 127.656Z" fill="#FB8500"/>
<path d="M124.304 26.9626L140.079 27.0493L151.956 16.1599L124.304 26.9626ZM164.809 27.1852L221.409 27.4973L211.193 4.14789L172.967 9.31854L164.809 27.1852ZM213.971 4.74927L264.403 27.6545L269.639 17.9572L213.971 4.74927ZM221.993 27.4999L263.271 27.7265L211.88 4.38657L221.993 27.4999ZM270.439 17.5985L326.845 30.9812L274.459 10.1586L270.439 17.5985ZM264.951 27.7599L327.256 31.6266L270.177 18.0852L264.951 27.7599ZM124.249 27.4959L134.775 31.9133L139.5 27.5799L124.249 27.4959ZM123.22 27.6413L124.64 41.2053L134.341 32.3106L123.22 27.6413ZM135.315 32.1399L157.676 41.5266L163.981 27.7146L140.285 27.5839L135.315 32.1399ZM266.307 28.3786L307.788 43.7372L329.385 32.2932L266.307 28.3786ZM308.459 43.9852L330.492 52.1425L330.088 32.5239L308.459 43.9852ZM331.029 52.3426L380.021 70.4812L330.625 32.6346L331.029 52.3426ZM72.7506 62.2839L86.5693 71.5239L121.519 28.5079L72.7506 62.2839ZM87.0146 71.8226L89.4639 73.4599L124.151 41.6545L122.709 27.8879L87.0146 71.8226ZM331.041 52.9146L331.465 73.4826L380.269 71.1413L331.041 52.9146ZM222.227 28.0345L243.771 77.2759L264.12 28.2639L222.227 28.0345ZM264.667 28.3386L244.308 77.3732L307.156 44.0719L264.667 28.3386ZM158.168 41.7332L243.265 77.4519L221.643 28.0306L164.567 27.7172L158.168 41.7332ZM307.827 44.3199L244.957 77.6319L330.932 73.5079L330.504 52.7159L307.827 44.3199ZM86.6773 72.2372L74.6466 87.0452L89.0586 73.8306L86.6773 72.2372ZM245.696 78.1306L331.44 98.1746L330.944 74.0413L245.696 78.1306ZM124.709 41.8652L130.831 100.333L157.455 42.0119L134.883 32.5372L124.709 41.8652ZM89.92 73.7639L130.343 100.796L124.22 42.3146L89.92 73.7639ZM157.947 42.2185L131.128 100.965L242.881 77.8679L157.947 42.2185ZM72.4119 62.6972L57.8839 102.415L71.952 89.5146L86.2319 71.9399L72.4119 62.6972ZM331.976 98.3012L362.972 105.547L381.131 71.6346L331.476 74.0159L331.976 98.3012ZM37.3125 104.225L49.9193 109.719L57.0293 103.197L71.508 63.6159L37.3125 104.225ZM57.4853 103.503L54.9458 110.447L69.6466 92.3532L57.4853 103.503ZM363.509 105.672L386.112 110.956L381.424 72.2159L363.509 105.672ZM50.4535 109.951L53.9953 111.495L56.6319 104.287L50.4535 109.951ZM72.3413 89.8826L54.7812 111.496L129.935 101.165L89.5146 74.1359L72.3413 89.8826ZM131.753 101.381L181.707 116.368L242.371 78.5185L131.753 101.381ZM386.665 111.085L414.647 117.627L381.976 72.3399L386.665 111.085ZM37.1114 104.719L35.4864 122.952L49.489 110.112L37.1114 104.719ZM35.4161 123.74L35.2057 126.099L53.6281 111.916L50.0239 110.345L35.4161 123.74ZM131.541 101.875L158.685 130.731L181.104 116.744L131.541 101.875ZM386.733 111.649L389.161 131.716L414.529 118.147L386.733 111.649ZM182.387 116.572L233.853 132.013L243.409 78.4999L182.387 116.572ZM34.8327 124.275L20.4666 137.447L34.6306 126.541L34.8327 124.275ZM36.5035 105.521L16.7921 140.092L34.903 123.487L36.5035 105.521ZM16.3177 141.313L32.9483 145.419L34.5661 127.264L16.3177 141.313ZM331.988 98.8506L333.268 161.021L362.711 106.033L331.988 98.8506ZM363.249 106.159L333.669 161.4L388.657 131.985L386.18 111.52L363.249 106.159ZM244.681 78.4413L332.743 161.415L331.452 98.7253L244.681 78.4413ZM234.367 132.167L332.019 161.465L243.953 78.4879L234.367 132.167ZM130.761 101.823L106.764 163.125L158.224 131.019L130.761 101.823ZM33.4718 145.548L105.355 163.289L54.1254 112.205L35.1412 126.821L33.4718 145.548ZM54.7177 112.043L106.123 163.301L130.252 101.66L54.7177 112.043ZM416.151 120.967L426.936 173.504L435.232 169.043L416.151 120.967ZM333.703 161.983L394.644 181.459L388.725 132.555L333.703 161.983ZM395.203 181.639L397.845 182.483L414.864 118.573L389.231 132.284L395.203 181.639ZM398.353 182.644L405.621 184.968L426.445 173.769L415.247 119.211L398.353 182.644ZM395.273 182.22L396.099 189.039L397.707 182.999L395.273 182.22ZM398.216 183.161L396.417 189.917L404.969 185.319L398.216 183.161ZM337.38 163.717L395.679 190.007L394.715 182.041L337.38 163.717ZM406.327 185.193L430.367 192.877L426.557 174.313L406.327 185.193ZM159.057 131.128L222.053 198.097L233.759 132.541L181.784 116.948L159.057 131.128ZM106.863 163.692L221.347 198.125L158.596 131.416L106.863 163.692ZM234.273 132.696L222.563 198.273L332.136 162.056L234.273 132.696ZM16.0604 141.8L27.9729 201.248L32.9005 145.956L16.0604 141.8ZM33.4245 146.085L28.3822 202.657L105.457 163.864L33.4245 146.085ZM3.76035 195.135L27.7239 202.721L15.7 142.715L3.76035 195.135ZM333.551 162.575L356.821 214.779L395.437 190.484L333.551 162.575ZM106.887 164.256L143.153 215.553L221.157 198.625L106.887 164.256ZM106.433 164.539L101.499 230.841L142.619 215.721L106.433 164.539ZM3.86248 195.725L16.5854 234.295L27.7297 203.281L3.86248 195.725ZM143.543 216.015L162.704 237.284L220.869 199.233L143.543 216.015ZM333.097 162.868L314.116 241.648L356.365 215.065L333.097 162.868ZM222.936 198.712L313.521 241.841L332.651 162.444L222.936 198.712ZM431.073 193.663L441.001 242.029L440.473 196.667L431.073 193.663ZM396.415 190.525L440.825 243.827L430.491 193.476L405.675 185.544L396.415 190.525ZM28.5068 203.193L65.3839 244.12L100.948 231.043L105.921 164.228L28.5068 203.193ZM143.396 216.648L146.924 247.607L162.252 237.58L143.396 216.648ZM396.399 191.34L404.899 250.071L440.793 244.621L396.399 191.34ZM357.041 215.271L374.409 254.229L395.511 191.068L357.041 215.271ZM314.404 242.097L373.988 254.595L356.585 215.557L314.404 242.097ZM395.897 191.595L374.835 254.635L404.371 250.151L395.897 191.595ZM16.8562 235.116L24.7546 259.059L64.8439 244.317L28.1745 203.621L16.8562 235.116ZM3.75981 197.116L5.52595 265.071L16.2921 235.109L3.75981 197.116ZM16.5639 235.931L5.74009 266.049L24.253 259.244L16.5639 235.931ZM6.36875 266.387L27.6546 269.555L24.4202 259.751L6.36875 266.387ZM375.216 255.116L407.932 274.757L404.447 250.679L375.216 255.116ZM142.852 216.577L98.5706 279.249L146.424 247.933L142.852 216.577ZM101.455 231.424L97.8919 279.283L142.325 216.397L101.455 231.424ZM65.7679 244.547L97.3359 279.581L100.905 231.628L65.7679 244.547ZM28.2453 269.641L96.8599 279.851L65.2293 244.745L24.9213 259.565L28.2453 269.641ZM408.523 275.113L428.355 287.02L440.924 245.14L404.973 250.599L408.523 275.113ZM428.825 287.304L432.268 289.369L439.984 250.127L428.825 287.304ZM374.568 255.349L353.435 304.369L410.588 293.121L408.029 275.44L374.568 255.349ZM5.95208 266.864L40.2739 307.808L27.8417 270.121L5.95208 266.864ZM314.004 242.559L320.712 310.811L352.8 304.495L374.071 255.157L314.004 242.559ZM98.0333 280.229L154.557 319.299L146.492 248.528L98.0333 280.229ZM97.8666 280.763L101.312 322.596L154.097 319.629L97.8666 280.763ZM41.1999 308.913L54.7526 325.081L97.0093 280.412L28.4322 270.209L41.1999 308.913ZM97.3373 280.831L55.3946 325.179L100.78 322.627L97.3373 280.831ZM163.065 237.685L242.26 325.595L222.024 199.115L163.065 237.685ZM41.6516 310.283L46.7281 325.672L54.1953 325.247L41.6516 310.283ZM222.565 199.125L242.839 325.827L313.276 242.315L222.565 199.125ZM313.5 242.877L243.36 326.035L320.187 310.915L313.5 242.877ZM155.129 319.601L242.024 326.129L162.613 237.98L146.992 248.2L155.129 319.601ZM6.05782 267.82L27.3464 326.777L46.177 325.703L40.7259 309.177L6.05782 267.82ZM408.621 275.795L411.153 293.296L416.371 326.94L428.195 287.547L408.621 275.795ZM410.783 294.385L394.883 337.144L415.992 327.981L410.783 294.385ZM28.0322 327.272L51.3863 341.497L46.3494 326.228L28.0322 327.272ZM52.0901 341.924L58.0053 345.528L54.5193 325.761L46.901 326.196L52.0901 341.924ZM320.764 311.344L326.164 366.279L352.544 305.088L320.764 311.344ZM353.179 304.964L326.512 366.82L394.204 337.439L410.472 293.688L353.179 304.964ZM243.493 326.553L325.688 366.883L320.24 311.448L243.493 326.553ZM243.065 326.936L253.708 369.469L324.923 367.103L243.065 326.936ZM242.524 326.969L198.767 371.295L253.163 369.487L242.524 326.969ZM155.139 320.139L151.889 372.853L197.992 371.32L242.072 326.667L155.139 320.139ZM58.6119 345.899L103.449 373.207L55.1473 326.249L58.6119 345.899ZM55.3613 325.713L105.009 373.979L100.824 323.157L55.3613 325.713ZM101.356 323.128L105.549 374.031L154.256 320.153L101.356 323.128ZM154.576 320.595L105.952 374.379L151.355 372.871L154.576 320.595ZM52.3473 342.705L63.4373 376.324L58.1293 346.228L52.3473 342.705ZM394.625 337.839L380.191 376.657L415.485 328.784L394.625 337.839ZM326.879 367.243L379.108 378.035L393.947 338.133L326.879 367.243ZM28.1172 327.948L63.5253 378.293L51.6447 342.279L28.1172 327.948ZM58.736 346.597L64.5599 379.621L104.545 374.499L58.736 346.597ZM326.256 367.659L325.671 385.237L377.688 378.287L326.256 367.659ZM325.705 368.152L311.043 387.192L325.135 385.308L325.705 368.152ZM253.841 369.999L259.856 394.032L310.293 387.292L325.444 367.619L253.841 369.999ZM65.6866 380.015L120.353 395.181L105.213 374.951L65.6866 380.015ZM106.289 374.903L149.715 399.492L151.321 373.405L106.289 374.903ZM121.193 395.414L149.481 403.262L149.677 400.084L106.309 375.527L121.193 395.414ZM150.007 403.409L160.869 406.421L150.195 400.376L150.007 403.409ZM198.221 371.847L163.627 406.892L259.323 394.103L253.296 370.017L198.221 371.847ZM150.231 399.785L162.843 406.926L197.447 371.872L151.857 373.388L150.231 399.785ZM325.652 385.777L324.897 408.441L377.928 378.792L325.652 385.777ZM324.876 409.064L324.552 418.781L375.847 380.567L324.876 409.064ZM66.072 380.675L146.941 430.708L120.876 395.88L66.072 380.675ZM121.716 396.114L147.777 430.934L149.448 403.807L121.716 396.114ZM310.581 387.792L271.831 438.109L324.353 408.745L325.116 385.849L310.581 387.792ZM259.985 394.553L270.952 438.377L309.831 387.892L259.985 394.553ZM164.168 407.357L270.455 438.589L259.453 394.624L164.168 407.357ZM148.277 431.465L200.988 443.052L162.755 407.498L149.973 403.953L148.277 431.465ZM201.885 443.79L201.828 443.783L147.945 431.937L147.897 431.922L147.853 431.9L64.2053 380.147L64.1613 380.113H64.1599L64.156 380.109L64.1533 380.107L64.152 380.105L64.1493 380.103L64.1479 380.1H64.1466L64.1199 380.067L26.9473 327.212L26.9182 327.16L26.9114 327.143L5.04635 266.589L5.04582 266.587H5.04475L5.04421 266.584L5.04168 266.577L5.04115 266.575L5.04062 266.573L5.03955 266.572V266.571L5.03902 266.569V266.568L5.03848 266.567V266.565L5.03742 266.564L5.02915 266.499L3.17969 195.328L3.18222 195.277V195.275L3.18688 195.252L15.4557 141.387L15.4849 141.308L36.6464 104.195L36.6546 104.181L36.6562 104.179L36.6568 104.177H36.6578L36.6583 104.176L36.6754 104.153L72.0733 62.1159L72.1293 62.0666L122.752 27.0052L122.784 26.9852L122.787 26.9839L122.815 26.9719L153.091 15.1425L153.415 15.2506L153.368 15.5879L140.863 27.0545L164.224 27.1826L172.541 8.9639L172.749 8.80923L211.317 3.59192L211.364 3.59055L211.423 3.59726L269.903 17.4719L274.101 9.69589C274.167 9.57721 274.305 9.52658 274.435 9.57458L330.445 31.8386L330.46 31.8439L330.461 31.8452L330.515 31.8786L381.747 71.1306L381.785 71.1666L381.787 71.1679L381.805 71.1919L415.493 117.889L415.513 117.919L415.515 117.92L415.529 117.955L435.815 169.067C435.865 169.193 435.813 169.336 435.695 169.4L427.047 174.051L430.951 193.063L440.819 196.217L441.005 196.468L441.568 244.805L441.567 244.84L441.561 244.869L432.719 289.845L432.565 290.037L432.32 290.024L428.667 287.829L416.544 328.219L416.536 328.241V328.243L416.499 328.307L379.497 378.495L379.455 378.543L379.453 378.544L379.452 378.545L379.449 378.547V378.548H379.448L379.447 378.549L379.445 378.551L379.444 378.552H379.443L379.435 378.559L324.425 419.538L324.143 419.561L324 419.316L324.332 409.368L270.957 439.209L270.748 439.232L163.899 407.833L202.067 443.326L202.121 443.645L201.885 443.79Z" fill="#023047"/>
<path d="M126.133 27.2225C126.133 29.0039 124.689 30.4479 122.908 30.4479C121.125 30.4479 119.681 29.0039 119.681 27.2225C119.681 25.4399 121.125 23.9959 122.908 23.9959C124.689 23.9959 126.133 25.4399 126.133 27.2225Z" fill="#023047"/>
<path d="M155.641 15.3919C155.641 16.7479 154.543 17.8452 153.188 17.8452C151.832 17.8452 150.733 16.7479 150.733 15.3919C150.733 14.0372 151.832 12.9386 153.188 12.9386C154.543 12.9386 155.641 14.0372 155.641 15.3919Z" fill="#023047"/>
<path d="M18.9432 141.44C18.9432 143.221 17.4984 144.665 15.7172 144.665C13.9355 144.665 12.4912 143.221 12.4912 141.44C12.4912 139.659 13.9355 138.213 15.7172 138.213C17.4984 138.213 18.9432 139.659 18.9432 141.44Z" fill="#023047"/>
<path d="M6.67186 195.315C6.67186 197.096 5.22759 198.54 3.44586 198.54C1.66399 198.54 0.219727 197.096 0.219727 195.315C0.219727 193.533 1.66399 192.088 3.44586 192.088C5.22759 192.088 6.67186 193.533 6.67186 195.315Z" fill="#023047"/>
<path d="M67.568 379.919C67.568 381.7 66.124 383.144 64.3413 383.144C62.56 383.144 61.116 381.7 61.116 379.919C61.116 378.136 62.56 376.692 64.3413 376.692C66.124 376.692 67.568 378.136 67.568 379.919Z" fill="#023047"/>
<path d="M166.115 407.259C166.115 409.041 164.671 410.485 162.889 410.485C161.107 410.485 159.663 409.041 159.663 407.259C159.663 405.477 161.107 404.033 162.889 404.033C164.671 404.033 166.115 405.477 166.115 407.259Z" fill="#023047"/>
<path d="M108.56 374.667C108.56 376.448 107.115 377.893 105.333 377.893C103.552 377.893 102.107 376.448 102.107 374.667C102.107 372.885 103.552 371.44 105.333 371.44C107.115 371.44 108.56 372.885 108.56 374.667Z" fill="#023047"/>
<path d="M329.227 367.333C329.227 369.115 327.781 370.56 326 370.56C324.219 370.56 322.773 369.115 322.773 367.333C322.773 365.552 324.219 364.107 326 364.107C327.781 364.107 329.227 365.552 329.227 367.333Z" fill="#023047"/>
<path d="M377.671 254.963C377.671 256.744 376.227 258.189 374.444 258.189C372.663 258.189 371.219 256.744 371.219 254.963C371.219 253.181 372.663 251.737 374.444 251.737C376.227 251.737 377.671 253.181 377.671 254.963Z" fill="#023047"/>
<path d="M316.929 242.223C316.929 244.004 315.485 245.448 313.704 245.448C311.921 245.448 310.477 244.004 310.477 242.223C310.477 240.44 311.921 238.996 313.704 238.996C315.485 238.996 316.929 240.44 316.929 242.223Z" fill="#023047"/>
<path d="M329.227 367.333C329.227 369.115 327.781 370.56 326 370.56C324.219 370.56 322.773 369.115 322.773 367.333C322.773 365.552 324.219 364.107 326 364.107C327.781 364.107 329.227 365.552 329.227 367.333Z" fill="#023047"/>
<path d="M245.893 326.444C245.893 328.227 244.448 329.671 242.667 329.671C240.885 329.671 239.44 328.227 239.44 326.444C239.44 324.663 240.885 323.219 242.667 323.219C244.448 323.219 245.893 324.663 245.893 326.444Z" fill="#023047"/>
<path d="M414.115 293.333C414.115 295.115 412.671 296.56 410.889 296.56C409.107 296.56 407.663 295.115 407.663 293.333C407.663 291.552 409.107 290.107 410.889 290.107C412.671 290.107 414.115 291.552 414.115 293.333Z" fill="#023047"/>
<path d="M399.227 190.444C399.227 192.227 397.781 193.671 396 193.671C394.219 193.671 392.773 192.227 392.773 190.444C392.773 188.663 394.219 187.219 396 187.219C397.781 187.219 399.227 188.663 399.227 190.444Z" fill="#023047"/>
<path d="M444.527 244.813C444.527 246.595 443.083 248.04 441.3 248.04C439.519 248.04 438.075 246.595 438.075 244.813C438.075 243.032 439.519 241.588 441.3 241.588C443.083 241.588 444.527 243.032 444.527 244.813Z" fill="#023047"/>
<path d="M377.671 254.963C377.671 256.744 376.227 258.189 374.444 258.189C372.663 258.189 371.219 256.744 371.219 254.963C371.219 253.181 372.663 251.737 374.444 251.737C376.227 251.737 377.671 253.181 377.671 254.963Z" fill="#023047"/>
<path d="M434.904 289.795C434.904 291.147 433.809 292.241 432.457 292.241C431.107 292.241 430.011 291.147 430.011 289.795C430.011 288.444 431.107 287.348 432.457 287.348C433.809 287.348 434.904 288.444 434.904 289.795Z" fill="#023047"/>
<path d="M444.527 244.813C444.527 246.595 443.083 248.04 441.3 248.04C439.519 248.04 438.075 246.595 438.075 244.813C438.075 243.032 439.519 241.588 441.3 241.588C443.083 241.588 444.527 243.032 444.527 244.813Z" fill="#023047"/>
<path d="M419.513 328.144C419.513 329.925 418.069 331.369 416.288 331.369C414.507 331.369 413.061 329.925 413.061 328.144C413.061 326.363 414.507 324.917 416.288 324.917C418.069 324.917 419.513 326.363 419.513 328.144Z" fill="#023047"/>
<path d="M414.115 293.333C414.115 295.115 412.671 296.56 410.889 296.56C409.107 296.56 407.663 295.115 407.663 293.333C407.663 291.552 409.107 290.107 410.889 290.107C412.671 290.107 414.115 291.552 414.115 293.333Z" fill="#023047"/>
<path d="M382.504 378.343C382.504 380.124 381.06 381.569 379.279 381.569C377.496 381.569 376.052 380.124 376.052 378.343C376.052 376.561 377.496 375.117 379.279 375.117C381.06 375.117 382.504 376.561 382.504 378.343Z" fill="#023047"/>
<path d="M419.883 328.144C419.883 330.129 418.273 331.739 416.288 331.739C414.303 331.739 412.693 330.129 412.693 328.144C412.693 326.159 414.303 324.549 416.288 324.549C418.273 324.549 419.883 326.159 419.883 328.144Z" fill="#023047"/>
<path d="M329.227 367.333C329.227 369.115 327.781 370.56 326 370.56C324.219 370.56 322.773 369.115 322.773 367.333C322.773 365.552 324.219 364.107 326 364.107C327.781 364.107 329.227 365.552 329.227 367.333Z" fill="#023047"/>
<path d="M382.504 378.343C382.504 380.124 381.06 381.569 379.279 381.569C377.496 381.569 376.052 380.124 376.052 378.343C376.052 376.561 377.496 375.117 379.279 375.117C381.06 375.117 382.504 376.561 382.504 378.343Z" fill="#023047"/>
<path d="M328.129 419.325C328.129 421.459 326.4 423.186 324.267 423.186C322.135 423.186 320.405 421.459 320.405 419.325C320.405 417.192 322.135 415.462 324.267 415.462C326.4 415.462 328.129 417.192 328.129 419.325Z" fill="#023047"/>
<path d="M330.913 367.333C330.913 370.047 328.713 372.247 326 372.247C323.287 372.247 321.087 370.047 321.087 367.333C321.087 364.62 323.287 362.42 326 362.42C328.713 362.42 330.913 364.62 330.913 367.333Z" fill="#023047"/>
<path d="M274.052 438.976C274.052 440.757 272.608 442.203 270.827 442.203C269.045 442.203 267.6 440.757 267.6 438.976C267.6 437.195 269.045 435.749 270.827 435.749C272.608 435.749 274.052 437.195 274.052 438.976Z" fill="#023047"/>
<path d="M382.504 378.343C382.504 380.124 381.06 381.569 379.279 381.569C377.496 381.569 376.052 380.124 376.052 378.343C376.052 376.561 377.496 375.117 379.279 375.117C381.06 375.117 382.504 376.561 382.504 378.343Z" fill="#023047"/>
<path d="M166.115 407.259C166.115 409.041 164.671 410.485 162.889 410.485C161.107 410.485 159.663 409.041 159.663 407.259C159.663 405.477 161.107 404.033 162.889 404.033C164.671 404.033 166.115 405.477 166.115 407.259Z" fill="#023047"/>
<path d="M245.893 326.444C245.893 328.227 244.448 329.671 242.667 329.671C240.885 329.671 239.44 328.227 239.44 326.444C239.44 324.663 240.885 323.219 242.667 323.219C244.448 323.219 245.893 324.663 245.893 326.444Z" fill="#023047"/>
<path d="M274.052 438.976C274.052 440.757 272.608 442.203 270.827 442.203C269.045 442.203 267.6 440.757 267.6 438.976C267.6 437.195 269.045 435.749 270.827 435.749C272.608 435.749 274.052 437.195 274.052 438.976Z" fill="#023047"/>
<path d="M168.343 407.259C168.343 410.271 165.901 412.714 162.889 412.714C159.877 412.714 157.436 410.271 157.436 407.259C157.436 404.248 159.877 401.805 162.889 401.805C165.901 401.805 168.343 404.248 168.343 407.259Z" fill="#023047"/>
<path d="M205.111 443.521C205.111 445.303 203.667 446.748 201.884 446.748C200.103 446.748 198.659 445.303 198.659 443.521C198.659 441.74 200.103 440.296 201.884 440.296C203.667 440.296 205.111 441.74 205.111 443.521Z" fill="#023047"/>
<path d="M151.224 431.674C151.224 433.457 149.78 434.902 147.997 434.902C146.216 434.902 144.772 433.457 144.772 431.674C144.772 429.893 146.216 428.449 147.997 428.449C149.78 428.449 151.224 429.893 151.224 431.674Z" fill="#023047"/>
<path d="M158.115 319.852C158.115 321.633 156.671 323.077 154.889 323.077C153.107 323.077 151.663 321.633 151.663 319.852C151.663 318.071 153.107 316.625 154.889 316.625C156.671 316.625 158.115 318.071 158.115 319.852Z" fill="#023047"/>
<path d="M245.893 326.444C245.893 328.227 244.448 329.671 242.667 329.671C240.885 329.671 239.44 328.227 239.44 326.444C239.44 324.663 240.885 323.219 242.667 323.219C244.448 323.219 245.893 324.663 245.893 326.444Z" fill="#023047"/>
<path d="M316.929 242.223C316.929 244.004 315.485 245.448 313.704 245.448C311.921 245.448 310.477 244.004 310.477 242.223C310.477 240.44 311.921 238.996 313.704 238.996C315.485 238.996 316.929 240.44 316.929 242.223Z" fill="#023047"/>
<path d="M399.227 190.444C399.227 192.227 397.781 193.671 396 193.671C394.219 193.671 392.773 192.227 392.773 190.444C392.773 188.663 394.219 187.219 396 187.219C397.781 187.219 399.227 188.663 399.227 190.444Z" fill="#023047"/>
<path d="M378.784 254.963C378.784 257.36 376.841 259.303 374.444 259.303C372.048 259.303 370.104 257.36 370.104 254.963C370.104 252.567 372.048 250.623 374.444 250.623C376.841 250.623 378.784 252.567 378.784 254.963Z" fill="#023047"/>
<path d="M336.248 162.044C336.248 163.827 334.804 165.271 333.023 165.271C331.24 165.271 329.796 163.827 329.796 162.044C329.796 160.263 331.24 158.819 333.023 158.819C334.804 158.819 336.248 160.263 336.248 162.044Z" fill="#023047"/>
<path d="M318.847 242.223C318.847 245.063 316.544 247.365 313.704 247.365C310.864 247.365 308.561 245.063 308.561 242.223C308.561 239.383 310.864 237.08 313.704 237.08C316.544 237.08 318.847 239.383 318.847 242.223Z" fill="#023047"/>
<path d="M225.448 198.667C225.448 200.448 224.004 201.893 222.223 201.893C220.44 201.893 218.996 200.448 218.996 198.667C218.996 196.885 220.44 195.44 222.223 195.44C224.004 195.44 225.448 196.885 225.448 198.667Z" fill="#023047"/>
<path d="M247.733 326.444C247.733 329.243 245.465 331.511 242.667 331.511C239.868 331.511 237.6 329.243 237.6 326.444C237.6 323.647 239.868 321.377 242.667 321.377C245.465 321.377 247.733 323.647 247.733 326.444Z" fill="#023047"/>
<path d="M146.263 215.852C146.263 217.633 144.819 219.077 143.037 219.077C141.256 219.077 139.811 217.633 139.811 215.852C139.811 214.071 141.256 212.625 143.037 212.625C144.819 212.625 146.263 214.071 146.263 215.852Z" fill="#023047"/>
<path d="M158.115 319.852C158.115 321.633 156.671 323.077 154.889 323.077C153.107 323.077 151.663 321.633 151.663 319.852C151.663 318.071 153.107 316.625 154.889 316.625C156.671 316.625 158.115 318.071 158.115 319.852Z" fill="#023047"/>
<path d="M108.56 374.667C108.56 376.448 107.115 377.893 105.333 377.893C103.552 377.893 102.107 376.448 102.107 374.667C102.107 372.885 103.552 371.44 105.333 371.44C107.115 371.44 108.56 372.885 108.56 374.667Z" fill="#023047"/>
<path d="M151.948 431.674C151.948 433.857 150.18 435.625 147.997 435.625C145.816 435.625 144.048 433.857 144.048 431.674C144.048 429.493 145.816 427.725 147.997 427.725C150.18 427.725 151.948 429.493 151.948 431.674Z" fill="#023047"/>
<path d="M67.568 379.919C67.568 381.7 66.124 383.144 64.3413 383.144C62.56 383.144 61.116 381.7 61.116 379.919C61.116 378.136 62.56 376.692 64.3413 376.692C66.124 376.692 67.568 378.136 67.568 379.919Z" fill="#023047"/>
<path d="M108.56 374.667C108.56 376.448 107.115 377.893 105.333 377.893C103.552 377.893 102.107 376.448 102.107 374.667C102.107 372.885 103.552 371.44 105.333 371.44C107.115 371.44 108.56 372.885 108.56 374.667Z" fill="#023047"/>
<path d="M100.781 280.223C100.781 282.004 99.3374 283.448 97.556 283.448C95.7734 283.448 94.3293 282.004 94.3293 280.223C94.3293 278.44 95.7734 276.996 97.556 276.996C99.3374 276.996 100.781 278.44 100.781 280.223Z" fill="#023047"/>
<path d="M158.115 319.852C158.115 321.633 156.671 323.077 154.889 323.077C153.107 323.077 151.663 321.633 151.663 319.852C151.663 318.071 153.107 316.625 154.889 316.625C156.671 316.625 158.115 318.071 158.115 319.852Z" fill="#023047"/>
<path d="M57.9667 325.481C57.9667 327.263 56.5227 328.708 54.7407 328.708C52.9588 328.708 51.5145 327.263 51.5145 325.481C51.5145 323.7 52.9588 322.256 54.7407 322.256C56.5227 322.256 57.9667 323.7 57.9667 325.481Z" fill="#023047"/>
<path d="M108.56 374.667C108.56 376.448 107.115 377.893 105.333 377.893C103.552 377.893 102.107 376.448 102.107 374.667C102.107 372.885 103.552 371.44 105.333 371.44C107.115 371.44 108.56 372.885 108.56 374.667Z" fill="#023047"/>
<path d="M30.3885 327.055C30.3885 328.836 28.9443 330.28 27.1625 330.28C25.3807 330.28 23.9364 328.836 23.9364 327.055C23.9364 325.273 25.3807 323.828 27.1625 323.828C28.9443 323.828 30.3885 325.273 30.3885 327.055Z" fill="#023047"/>
<path d="M67.568 379.919C67.568 381.7 66.124 383.144 64.3413 383.144C62.56 383.144 61.116 381.7 61.116 379.919C61.116 378.136 62.56 376.692 64.3413 376.692C66.124 376.692 67.568 378.136 67.568 379.919Z" fill="#023047"/>
<path d="M57.9667 325.481C57.9667 327.263 56.5227 328.708 54.7407 328.708C52.9588 328.708 51.5145 327.263 51.5145 325.481C51.5145 323.7 52.9588 322.256 54.7407 322.256C56.5227 322.256 57.9667 323.7 57.9667 325.481Z" fill="#023047"/>
<path d="M30.3885 327.055C30.3885 328.836 28.9443 330.28 27.1625 330.28C25.3807 330.28 23.9364 328.836 23.9364 327.055C23.9364 325.273 25.3807 323.828 27.1625 323.828C28.9443 323.828 30.3885 325.273 30.3885 327.055Z" fill="#023047"/>
<path d="M8.52237 266.497C8.52237 268.279 7.07757 269.723 5.29637 269.723C3.5145 269.723 2.0697 268.279 2.0697 266.497C2.0697 264.715 3.5145 263.271 5.29637 263.271C7.07757 263.271 8.52237 264.715 8.52237 266.497Z" fill="#023047"/>
<path d="M58.9653 325.481C58.9653 327.815 57.0733 329.707 54.7406 329.707C52.4078 329.707 50.5161 327.815 50.5161 325.481C50.5161 323.148 52.4078 321.257 54.7406 321.257C57.0733 321.257 58.9653 323.148 58.9653 325.481Z" fill="#023047"/>
<path d="M100.781 280.223C100.781 282.004 99.3374 283.448 97.556 283.448C95.7734 283.448 94.3293 282.004 94.3293 280.223C94.3293 278.44 95.7734 276.996 97.556 276.996C99.3374 276.996 100.781 278.44 100.781 280.223Z" fill="#023047"/>
<path d="M225.448 198.667C225.448 200.448 224.004 201.893 222.223 201.893C220.44 201.893 218.996 200.448 218.996 198.667C218.996 196.885 220.44 195.44 222.223 195.44C224.004 195.44 225.448 196.885 225.448 198.667Z" fill="#023047"/>
<path d="M336.248 162.044C336.248 163.827 334.804 165.271 333.023 165.271C331.24 165.271 329.796 163.827 329.796 162.044C329.796 160.263 331.24 158.819 333.023 158.819C334.804 158.819 336.248 160.263 336.248 162.044Z" fill="#023047"/>
<path d="M442.716 196.471C442.716 197.564 441.831 198.449 440.739 198.449C439.645 198.449 438.76 197.564 438.76 196.471C438.76 195.379 439.645 194.493 440.739 194.493C441.831 194.493 442.716 195.379 442.716 196.471Z" fill="#023047"/>
<path d="M444.527 244.813C444.527 246.595 443.083 248.04 441.3 248.04C439.519 248.04 438.075 246.595 438.075 244.813C438.075 243.032 439.519 241.588 441.3 241.588C443.083 241.588 444.527 243.032 444.527 244.813Z" fill="#023047"/>
<path d="M418.507 118.048C418.507 119.831 417.063 121.275 415.28 121.275C413.499 121.275 412.055 119.831 412.055 118.048C412.055 116.267 413.499 114.823 415.28 114.823C417.063 114.823 418.507 116.267 418.507 118.048Z" fill="#023047"/>
<path d="M336.248 162.044C336.248 163.827 334.804 165.271 333.023 165.271C331.24 165.271 329.796 163.827 329.796 162.044C329.796 160.263 331.24 158.819 333.023 158.819C334.804 158.819 336.248 160.263 336.248 162.044Z" fill="#023047"/>
<path d="M399.227 190.444C399.227 192.227 397.781 193.671 396 193.671C394.219 193.671 392.773 192.227 392.773 190.444C392.773 188.663 394.219 187.219 396 187.219C397.781 187.219 399.227 188.663 399.227 190.444Z" fill="#023047"/>
<path d="M438.795 169.165C438.795 170.947 437.349 172.392 435.568 172.392C433.787 172.392 432.343 170.947 432.343 169.165C432.343 167.384 433.787 165.939 435.568 165.939C437.349 165.939 438.795 167.384 438.795 169.165Z" fill="#023047"/>
<path d="M418.507 118.048C418.507 119.831 417.063 121.275 415.28 121.275C413.499 121.275 412.055 119.831 412.055 118.048C412.055 116.267 413.499 114.823 415.28 114.823C417.063 114.823 418.507 116.267 418.507 118.048Z" fill="#023047"/>
<path d="M399.227 190.444C399.227 192.227 397.781 193.671 396 193.671C394.219 193.671 392.773 192.227 392.773 190.444C392.773 188.663 394.219 187.219 396 187.219C397.781 187.219 399.227 188.663 399.227 190.444Z" fill="#023047"/>
<path d="M247.004 77.9559C247.004 79.7372 245.56 81.1813 243.777 81.1813C241.996 81.1813 240.552 79.7372 240.552 77.9559C240.552 76.1733 241.996 74.7293 243.777 74.7293C245.56 74.7293 247.004 76.1733 247.004 77.9559Z" fill="#023047"/>
<path d="M418.507 118.048C418.507 119.831 417.063 121.275 415.28 121.275C413.499 121.275 412.055 119.831 412.055 118.048C412.055 116.267 413.499 114.823 415.28 114.823C417.063 114.823 418.507 116.267 418.507 118.048Z" fill="#023047"/>
<path d="M336.248 162.044C336.248 163.827 334.804 165.271 333.023 165.271C331.24 165.271 329.796 163.827 329.796 162.044C329.796 160.263 331.24 158.819 333.023 158.819C334.804 158.819 336.248 160.263 336.248 162.044Z" fill="#023047"/>
<path d="M333.572 32.0866C333.572 33.8679 332.128 35.3119 330.347 35.3119C328.564 35.3119 327.12 33.8679 327.12 32.0866C327.12 30.3052 328.564 28.8599 330.347 28.8599C332.128 28.8599 333.572 30.3052 333.572 32.0866Z" fill="#023047"/>
<path d="M384.14 71.3453C384.14 72.7559 382.997 73.8986 381.588 73.8986C380.177 73.8986 379.035 72.7559 379.035 71.3453C379.035 69.9359 380.177 68.7933 381.588 68.7933C382.997 68.7933 384.14 69.9359 384.14 71.3453Z" fill="#023047"/>
<path d="M267.744 27.9999C267.744 29.7812 266.3 31.2266 264.519 31.2266C262.737 31.2266 261.292 29.7812 261.292 27.9999C261.292 26.2186 262.737 24.7732 264.519 24.7732C266.3 24.7732 267.744 26.2186 267.744 27.9999Z" fill="#023047"/>
<path d="M277.561 9.82259C277.561 11.6053 276.117 13.0493 274.336 13.0493C272.553 13.0493 271.109 11.6053 271.109 9.82259C271.109 8.04126 272.553 6.59727 274.336 6.59727C276.117 6.59727 277.561 8.04126 277.561 9.82259Z" fill="#023047"/>
<path d="M309.823 44.0479C309.823 45.1213 308.952 45.9919 307.879 45.9919C306.805 45.9919 305.935 45.1213 305.935 44.0479C305.935 42.9746 306.805 42.1039 307.879 42.1039C308.952 42.1039 309.823 42.9746 309.823 44.0479Z" fill="#023047"/>
<path d="M332.709 52.5813C332.709 53.6159 331.871 54.4546 330.836 54.4546C329.803 54.4546 328.964 53.6159 328.964 52.5813C328.964 51.5479 329.803 50.7093 330.836 50.7093C331.871 50.7093 332.709 51.5479 332.709 52.5813Z" fill="#023047"/>
<path d="M333.301 98.4306C333.301 99.4653 332.463 100.304 331.428 100.304C330.393 100.304 329.556 99.4653 329.556 98.4306C329.556 97.3959 330.393 96.5572 331.428 96.5572C332.463 96.5572 333.301 97.3959 333.301 98.4306Z" fill="#023047"/>
<path d="M333.139 73.5693C333.139 74.6039 332.3 75.4426 331.267 75.4426C330.232 75.4426 329.393 74.6039 329.393 73.5693C329.393 72.5359 330.232 71.6973 331.267 71.6973C332.3 71.6973 333.139 72.5359 333.139 73.5693Z" fill="#023047"/>
<path d="M364.768 105.895C364.768 106.928 363.929 107.767 362.896 107.767C361.861 107.767 361.023 106.928 361.023 105.895C361.023 104.86 361.861 104.021 362.896 104.021C363.929 104.021 364.768 104.86 364.768 105.895Z" fill="#023047"/>
<path d="M388.167 111.139C388.167 112.173 387.329 113.012 386.295 113.012C385.26 113.012 384.421 112.173 384.421 111.139C384.421 110.104 385.26 109.265 386.295 109.265C387.329 109.265 388.167 110.104 388.167 111.139Z" fill="#023047"/>
<path d="M390.991 132.117C390.991 133.151 390.153 133.989 389.119 133.989C388.084 133.989 387.245 133.151 387.245 132.117C387.245 131.083 388.084 130.244 389.119 130.244C390.153 130.244 390.991 131.083 390.991 132.117Z" fill="#023047"/>
<path d="M396.761 181.556C396.761 182.589 395.923 183.428 394.889 183.428C393.855 183.428 393.016 182.589 393.016 181.556C393.016 180.521 393.855 179.683 394.889 179.683C395.923 179.683 396.761 180.521 396.761 181.556Z" fill="#023047"/>
<path d="M407.651 185.333C407.651 186.368 406.812 187.207 405.777 187.207C404.744 187.207 403.905 186.368 403.905 185.333C403.905 184.299 404.744 183.46 405.777 183.46C406.812 183.46 407.651 184.299 407.651 185.333Z" fill="#023047"/>
<path d="M358.761 214.889C358.761 215.923 357.923 216.761 356.889 216.761C355.855 216.761 355.016 215.923 355.016 214.889C355.016 213.855 355.855 213.016 356.889 213.016C357.923 213.016 358.761 213.855 358.761 214.889Z" fill="#023047"/>
<path d="M406.54 250.444C406.54 251.479 405.701 252.317 404.667 252.317C403.632 252.317 402.793 251.479 402.793 250.444C402.793 249.411 403.632 248.572 404.667 248.572C405.701 248.572 406.54 249.411 406.54 250.444Z" fill="#023047"/>
<path d="M410.095 275.333C410.095 276.368 409.256 277.207 408.223 277.207C407.188 277.207 406.349 276.368 406.349 275.333C406.349 274.299 407.188 273.46 408.223 273.46C409.256 273.46 410.095 274.299 410.095 275.333Z" fill="#023047"/>
<path d="M355.207 304.444C355.207 305.479 354.368 306.317 353.333 306.317C352.299 306.317 351.46 305.479 351.46 304.444C351.46 303.411 352.299 302.572 353.333 302.572C354.368 302.572 355.207 303.411 355.207 304.444Z" fill="#023047"/>
<path d="M322.54 311.556C322.54 312.589 321.701 313.428 320.667 313.428C319.632 313.428 318.793 312.589 318.793 311.556C318.793 310.521 319.632 309.683 320.667 309.683C321.701 309.683 322.54 310.521 322.54 311.556Z" fill="#023047"/>
<path d="M261.651 394.667C261.651 395.702 260.812 396.54 259.777 396.54C258.744 396.54 257.905 395.702 257.905 394.667C257.905 393.632 258.744 392.793 259.777 392.793C260.812 392.793 261.651 393.632 261.651 394.667Z" fill="#023047"/>
<path d="M255.207 369.777C255.207 370.812 254.368 371.651 253.333 371.651C252.299 371.651 251.46 370.812 251.46 369.777C251.46 368.744 252.299 367.905 253.333 367.905C254.368 367.905 255.207 368.744 255.207 369.777Z" fill="#023047"/>
<path d="M199.873 371.777C199.873 372.812 199.035 373.651 198 373.651C196.965 373.651 196.127 372.812 196.127 371.777C196.127 370.744 196.965 369.905 198 369.905C199.035 369.905 199.873 370.744 199.873 371.777Z" fill="#023047"/>
<path d="M151.428 403.777C151.428 404.812 150.589 405.65 149.556 405.65C148.521 405.65 147.683 404.812 147.683 403.777C147.683 402.744 148.521 401.905 149.556 401.905C150.589 401.905 151.428 402.744 151.428 403.777Z" fill="#023047"/>
<path d="M122.984 395.777C122.984 396.812 122.145 397.65 121.111 397.65C120.077 397.65 119.239 396.812 119.239 395.777C119.239 394.744 120.077 393.905 121.111 393.905C122.145 393.905 122.984 394.744 122.984 395.777Z" fill="#023047"/>
<path d="M153.651 373.333C153.651 374.368 152.812 375.207 151.777 375.207C150.744 375.207 149.905 374.368 149.905 373.333C149.905 372.299 150.744 371.46 151.777 371.46C152.812 371.46 153.651 372.299 153.651 373.333Z" fill="#023047"/>
<path d="M60.984 345.777C60.984 346.812 60.1453 347.651 59.1106 347.651C58.0773 347.651 57.2386 346.812 57.2386 345.777C57.2386 344.744 58.0773 343.905 59.1106 343.905C60.1453 343.905 60.984 344.744 60.984 345.777Z" fill="#023047"/>
<path d="M53.6505 342.223C53.6505 343.256 52.8119 344.095 51.7775 344.095C50.7431 344.095 49.9052 343.256 49.9052 342.223C49.9052 341.188 50.7431 340.349 51.7775 340.349C52.8119 340.349 53.6505 341.188 53.6505 342.223Z" fill="#023047"/>
<path d="M48.3172 326C48.3172 327.035 47.4787 327.873 46.4443 327.873C45.4099 327.873 44.5719 327.035 44.5719 326C44.5719 324.965 45.4099 324.127 46.4443 324.127C47.4787 324.127 48.3172 324.965 48.3172 326Z" fill="#023047"/>
<path d="M42.7615 309.556C42.7615 310.589 41.9235 311.428 40.8891 311.428C39.8547 311.428 39.0161 310.589 39.0161 309.556C39.0161 308.521 39.8547 307.683 40.8891 307.683C41.9235 307.683 42.7615 308.521 42.7615 309.556Z" fill="#023047"/>
<path d="M29.8729 270C29.8729 271.035 29.0344 271.873 28 271.873C26.9656 271.873 26.1271 271.035 26.1271 270C26.1271 268.965 26.9656 268.127 28 268.127C29.0344 268.127 29.8729 268.965 29.8729 270Z" fill="#023047"/>
<path d="M26.5396 259.111C26.5396 260.145 25.701 260.984 24.6666 260.984C23.6322 260.984 22.7937 260.145 22.7937 259.111C22.7937 258.077 23.6322 257.239 24.6666 257.239C25.701 257.239 26.5396 258.077 26.5396 259.111Z" fill="#023047"/>
<path d="M102.761 322.889C102.761 323.923 101.923 324.761 100.889 324.761C99.8547 324.761 99.016 323.923 99.016 322.889C99.016 321.855 99.8547 321.016 100.889 321.016C101.923 321.016 102.761 321.855 102.761 322.889Z" fill="#023047"/>
<path d="M67.2066 244.444C67.2066 245.479 66.368 246.317 65.3333 246.317C64.2986 246.317 63.46 245.479 63.46 244.444C63.46 243.411 64.2986 242.572 65.3333 242.572C66.368 242.572 67.2066 243.411 67.2066 244.444Z" fill="#023047"/>
<path d="M18.7615 234.667C18.7615 235.701 17.9235 236.54 16.8891 236.54C15.8547 236.54 15.0161 235.701 15.0161 234.667C15.0161 233.632 15.8547 232.793 16.8891 232.793C17.9235 232.793 18.7615 233.632 18.7615 234.667Z" fill="#023047"/>
<path d="M35.4 146.055C35.4 147.089 34.5615 147.927 33.5271 147.927C32.4932 147.927 31.6547 147.089 31.6547 146.055C31.6547 145.02 32.4932 144.181 33.5271 144.181C34.5615 144.181 35.4 145.02 35.4 146.055Z" fill="#023047"/>
<path d="M74.54 89.3332C74.54 90.3679 73.7013 91.2066 72.6667 91.2066C71.632 91.2066 70.7933 90.3679 70.7933 89.3332C70.7933 88.2986 71.632 87.4599 72.6667 87.4599C73.7013 87.4599 74.54 88.2986 74.54 89.3332Z" fill="#023047"/>
<path d="M36.9839 123.556C36.9839 124.589 36.1453 125.428 35.1109 125.428C34.0765 125.428 33.2385 124.589 33.2385 123.556C33.2385 122.521 34.0765 121.683 35.1109 121.683C36.1453 121.683 36.9839 122.521 36.9839 123.556Z" fill="#023047"/>
<path d="M91.2066 73.9999C91.2066 75.0346 90.368 75.8733 89.3333 75.8733C88.2986 75.8733 87.46 75.0346 87.46 73.9999C87.46 72.9653 88.2986 72.1266 89.3333 72.1266C90.368 72.1266 91.2066 72.9653 91.2066 73.9999Z" fill="#023047"/>
<path d="M59.2066 103.556C59.2066 104.589 58.368 105.428 57.3333 105.428C56.2986 105.428 55.46 104.589 55.46 103.556C55.46 102.521 56.2986 101.683 57.3333 101.683C58.368 101.683 59.2066 102.521 59.2066 103.556Z" fill="#023047"/>
<path d="M159.651 41.8719C159.651 42.9066 158.812 43.7453 157.777 43.7453C156.744 43.7453 155.905 42.9066 155.905 41.8719C155.905 40.8386 156.744 39.9999 157.777 39.9999C158.812 39.9999 159.651 40.8386 159.651 41.8719Z" fill="#023047"/>
<path d="M166.317 27.3332C166.317 28.3679 165.479 29.2052 164.444 29.2052C163.411 29.2052 162.572 28.3679 162.572 27.3332C162.572 26.2986 163.411 25.4599 164.444 25.4599C165.479 25.4599 166.317 26.2986 166.317 27.3332Z" fill="#023047"/>
<path d="M136.761 32.6666C136.761 33.7012 135.923 34.5386 134.889 34.5386C133.855 34.5386 133.016 33.7012 133.016 32.6666C133.016 31.6319 133.855 30.7932 134.889 30.7932C135.923 30.7932 136.761 31.6319 136.761 32.6666Z" fill="#023047"/>
<path d="M126.54 41.9999C126.54 43.0346 125.701 43.8719 124.667 43.8719C123.632 43.8719 122.793 43.0346 122.793 41.9999C122.793 40.9652 123.632 40.1266 124.667 40.1266C125.701 40.1266 126.54 40.9652 126.54 41.9999Z" fill="#023047"/>
<path d="M142.54 27.1106C142.54 28.1452 141.701 28.9839 140.667 28.9839C139.632 28.9839 138.793 28.1452 138.793 27.1106C138.793 26.0759 139.632 25.2386 140.667 25.2386C141.701 25.2386 142.54 26.0759 142.54 27.1106Z" fill="#023047"/>
<path d="M223.651 27.5559C223.651 28.5892 222.812 29.4279 221.777 29.4279C220.744 29.4279 219.905 28.5892 219.905 27.5559C219.905 26.5212 220.744 25.6826 221.777 25.6826C222.812 25.6826 223.651 26.5212 223.651 27.5559Z" fill="#023047"/>
<path d="M183.428 116.889C183.428 117.923 182.589 118.761 181.556 118.761C180.521 118.761 179.683 117.923 179.683 116.889C179.683 115.855 180.521 115.016 181.556 115.016C182.589 115.016 183.428 115.855 183.428 116.889Z" fill="#023047"/>
<path d="M160.54 131.111C160.54 132.145 159.701 132.984 158.667 132.984C157.632 132.984 156.793 132.145 156.793 131.111C156.793 130.077 157.632 129.239 158.667 129.239C159.701 129.239 160.54 130.077 160.54 131.111Z" fill="#023047"/>
<path d="M235.873 132.223C235.873 133.256 235.035 134.095 234 134.095C232.965 134.095 232.127 133.256 232.127 132.223C232.127 131.188 232.965 130.349 234 130.349C235.035 130.349 235.873 131.188 235.873 132.223Z" fill="#023047"/>
<path d="M271.873 17.7772C271.873 18.8119 271.035 19.6505 270 19.6505C268.965 19.6505 268.127 18.8119 268.127 17.7772C268.127 16.7426 268.965 15.9052 270 15.9052C271.035 15.9052 271.873 16.7426 271.873 17.7772Z" fill="#023047"/>
<path d="M333.572 32.0866C333.572 33.8679 332.128 35.3119 330.347 35.3119C328.564 35.3119 327.12 33.8679 327.12 32.0866C327.12 30.3052 328.564 28.8599 330.347 28.8599C332.128 28.8599 333.572 30.3052 333.572 32.0866Z" fill="#023047"/>
<path d="M214.583 3.85591C214.583 5.63724 213.139 7.08127 211.357 7.08127C209.576 7.08127 208.131 5.63724 208.131 3.85591C208.131 2.07458 209.576 0.629251 211.357 0.629251C213.139 0.629251 214.583 2.07458 214.583 3.85591Z" fill="#023047"/>
<path d="M267.744 27.9999C267.744 29.7812 266.3 31.2266 264.519 31.2266C262.737 31.2266 261.292 29.7812 261.292 27.9999C261.292 26.2186 262.737 24.7732 264.519 24.7732C266.3 24.7732 267.744 26.2186 267.744 27.9999Z" fill="#023047"/>
<path d="M335.239 32.0866C335.239 34.7879 333.048 36.9786 330.347 36.9786C327.644 36.9786 325.453 34.7879 325.453 32.0866C325.453 29.3839 327.644 27.1933 330.347 27.1933C333.048 27.1933 335.239 29.3839 335.239 32.0866Z" fill="#023047"/>
<path d="M247.004 77.9559C247.004 79.7372 245.56 81.1813 243.777 81.1813C241.996 81.1813 240.552 79.7372 240.552 77.9559C240.552 76.1733 241.996 74.7293 243.777 74.7293C245.56 74.7293 247.004 76.1733 247.004 77.9559Z" fill="#023047"/>
<path d="M344.287 162.044C344.287 168.265 339.244 173.309 333.023 173.309C326.801 173.309 321.757 168.265 321.757 162.044C321.757 155.823 326.801 150.78 333.023 150.78C339.244 150.78 344.287 155.823 344.287 162.044Z" fill="#023047"/>
<path d="M133.893 101.333C133.893 103.115 132.448 104.56 130.667 104.56C128.885 104.56 127.44 103.115 127.44 101.333C127.44 99.5519 128.885 98.1066 130.667 98.1066C132.448 98.1066 133.893 99.5519 133.893 101.333Z" fill="#023047"/>
<path d="M225.448 198.667C225.448 200.448 224.004 201.893 222.223 201.893C220.44 201.893 218.996 200.448 218.996 198.667C218.996 196.885 220.44 195.44 222.223 195.44C224.004 195.44 225.448 196.885 225.448 198.667Z" fill="#023047"/>
<path d="M247.004 77.9559C247.004 79.7372 245.56 81.1813 243.777 81.1813C241.996 81.1813 240.552 79.7372 240.552 77.9559C240.552 76.1733 241.996 74.7293 243.777 74.7293C245.56 74.7293 247.004 76.1733 247.004 77.9559Z" fill="#023047"/>
<path d="M109.448 163.777C109.448 165.56 108.004 167.004 106.223 167.004C104.44 167.004 102.996 165.56 102.996 163.777C102.996 161.996 104.44 160.552 106.223 160.552C108.004 160.552 109.448 161.996 109.448 163.777Z" fill="#023047"/>
<path d="M146.263 215.852C146.263 217.633 144.819 219.077 143.037 219.077C141.256 219.077 139.811 217.633 139.811 215.852C139.811 214.071 141.256 212.625 143.037 212.625C144.819 212.625 146.263 214.071 146.263 215.852Z" fill="#023047"/>
<path d="M230.889 198.667C230.889 203.453 227.009 207.333 222.223 207.333C217.436 207.333 213.555 203.453 213.555 198.667C213.555 193.88 217.436 190 222.223 190C227.009 190 230.889 193.88 230.889 198.667Z" fill="#023047"/>
<path d="M109.448 163.777C109.448 165.56 108.004 167.004 106.223 167.004C104.44 167.004 102.996 165.56 102.996 163.777C102.996 161.996 104.44 160.552 106.223 160.552C108.004 160.552 109.448 161.996 109.448 163.777Z" fill="#023047"/>
<path d="M100.781 280.223C100.781 282.004 99.3374 283.448 97.556 283.448C95.7734 283.448 94.3293 282.004 94.3293 280.223C94.3293 278.44 95.7734 276.996 97.556 276.996C99.3374 276.996 100.781 278.44 100.781 280.223Z" fill="#023047"/>
<path d="M147.453 215.852C147.453 218.291 145.476 220.268 143.037 220.268C140.599 220.268 138.621 218.291 138.621 215.852C138.621 213.413 140.599 211.436 143.037 211.436C145.476 211.436 147.453 213.413 147.453 215.852Z" fill="#023047"/>
<path d="M8.52237 266.497C8.52237 268.279 7.07757 269.723 5.29637 269.723C3.5145 269.723 2.0697 268.279 2.0697 266.497C2.0697 264.715 3.5145 263.271 5.29637 263.271C7.07757 263.271 8.52237 264.715 8.52237 266.497Z" fill="#023047"/>
<path d="M107.349 280.223C107.349 285.631 102.964 290.016 97.556 290.016C92.1467 290.016 87.7627 285.631 87.7627 280.223C87.7627 274.813 92.1467 270.429 97.556 270.429C102.964 270.429 107.349 274.813 107.349 280.223Z" fill="#023047"/>
<path d="M31.3 203.111C31.3 204.893 29.8558 206.337 28.074 206.337C26.2922 206.337 24.8479 204.893 24.8479 203.111C24.8479 201.329 26.2922 199.885 28.074 199.885C29.8558 199.885 31.3 201.329 31.3 203.111Z" fill="#023047"/>
<path d="M6.67186 195.315C6.67186 197.096 5.22759 198.54 3.44586 198.54C1.66399 198.54 0.219727 197.096 0.219727 195.315C0.219727 193.533 1.66399 192.088 3.44586 192.088C5.22759 192.088 6.67186 193.533 6.67186 195.315Z" fill="#023047"/>
<path d="M8.52237 266.497C8.52237 268.279 7.07757 269.723 5.29637 269.723C3.5145 269.723 2.0697 268.279 2.0697 266.497C2.0697 264.715 3.5145 263.271 5.29637 263.271C7.07757 263.271 8.52237 264.715 8.52237 266.497Z" fill="#023047"/>
<path d="M31.3 203.111C31.3 204.893 29.8558 206.337 28.074 206.337C26.2922 206.337 24.8479 204.893 24.8479 203.111C24.8479 201.329 26.2922 199.885 28.074 199.885C29.8558 199.885 31.3 201.329 31.3 203.111Z" fill="#023047"/>
<path d="M109.448 163.777C109.448 165.56 108.004 167.004 106.223 167.004C104.44 167.004 102.996 165.56 102.996 163.777C102.996 161.996 104.44 160.552 106.223 160.552C108.004 160.552 109.448 161.996 109.448 163.777Z" fill="#023047"/>
<path d="M18.9432 141.44C18.9432 143.221 17.4984 144.665 15.7172 144.665C13.9355 144.665 12.4912 143.221 12.4912 141.44C12.4912 139.659 13.9355 138.213 15.7172 138.213C17.4984 138.213 18.9432 139.659 18.9432 141.44Z" fill="#023047"/>
<path d="M31.3 203.111C31.3 204.893 29.8558 206.337 28.074 206.337C26.2922 206.337 24.8479 204.893 24.8479 203.111C24.8479 201.329 26.2922 199.885 28.074 199.885C29.8558 199.885 31.3 201.329 31.3 203.111Z" fill="#023047"/>
<path d="M18.9432 141.44C18.9432 143.221 17.4984 144.665 15.7172 144.665C13.9355 144.665 12.4912 143.221 12.4912 141.44C12.4912 139.659 13.9355 138.213 15.7172 138.213C17.4984 138.213 18.9432 139.659 18.9432 141.44Z" fill="#023047"/>
<path d="M57.3747 111.852C57.3747 113.633 55.9293 115.077 54.1479 115.077C52.3667 115.077 50.9219 113.633 50.9219 111.852C50.9219 110.071 52.3667 108.625 54.1479 108.625C55.9293 108.625 57.3747 110.071 57.3747 111.852Z" fill="#023047"/>
<path d="M39.4375 104.327C39.4375 105.74 38.2917 106.885 36.8787 106.885C35.4651 106.885 34.3193 105.74 34.3193 104.327C34.3193 102.913 35.4651 101.768 36.8787 101.768C38.2917 101.768 39.4375 102.913 39.4375 104.327Z" fill="#023047"/>
<path d="M113.544 163.777C113.544 167.821 110.267 171.1 106.223 171.1C102.179 171.1 98.9 167.821 98.9 163.777C98.9 159.733 102.179 156.456 106.223 156.456C110.267 156.456 113.544 159.733 113.544 163.777Z" fill="#023047"/>
<path d="M133.893 101.333C133.893 103.115 132.448 104.56 130.667 104.56C128.885 104.56 127.44 103.115 127.44 101.333C127.44 99.5519 128.885 98.1066 130.667 98.1066C132.448 98.1066 133.893 99.5519 133.893 101.333Z" fill="#023047"/>
<path d="M247.004 77.9559C247.004 79.7372 245.56 81.1813 243.777 81.1813C241.996 81.1813 240.552 79.7372 240.552 77.9559C240.552 76.1733 241.996 74.7293 243.777 74.7293C245.56 74.7293 247.004 76.1733 247.004 77.9559Z" fill="#023047"/>
<path d="M268.935 27.9999C268.935 30.4386 266.957 32.4159 264.519 32.4159C262.079 32.4159 260.101 30.4386 260.101 27.9999C260.101 25.5612 262.079 23.5826 264.519 23.5826C266.957 23.5826 268.935 25.5612 268.935 27.9999Z" fill="#023047"/>
<path d="M126.133 27.2225C126.133 29.0039 124.689 30.4479 122.908 30.4479C121.125 30.4479 119.681 29.0039 119.681 27.2225C119.681 25.4399 121.125 23.9959 122.908 23.9959C124.689 23.9959 126.133 25.4399 126.133 27.2225Z" fill="#023047"/>
<path d="M133.893 101.333C133.893 103.115 132.448 104.56 130.667 104.56C128.885 104.56 127.44 103.115 127.44 101.333C127.44 99.5519 128.885 98.1066 130.667 98.1066C132.448 98.1066 133.893 99.5519 133.893 101.333Z" fill="#023047"/>
<path d="M74.4933 62.2879C74.4933 63.5119 73.5013 64.5039 72.2773 64.5039C71.0533 64.5039 70.0613 63.5119 70.0613 62.2879C70.0613 61.0639 71.0533 60.0719 72.2773 60.0719C73.5013 60.0719 74.4933 61.0639 74.4933 62.2879Z" fill="#023047"/>
<path d="M126.133 27.2225C126.133 29.0039 124.689 30.4479 122.908 30.4479C121.125 30.4479 119.681 29.0039 119.681 27.2225C119.681 25.4399 121.125 23.9959 122.908 23.9959C124.689 23.9959 126.133 25.4399 126.133 27.2225Z" fill="#023047"/>
<path d="M133.893 101.333C133.893 103.115 132.448 104.56 130.667 104.56C128.885 104.56 127.44 103.115 127.44 101.333C127.44 99.5519 128.885 98.1066 130.667 98.1066C132.448 98.1066 133.893 99.5519 133.893 101.333Z" fill="#023047"/>
<path d="M176.011 9.0746C176.011 10.8559 174.567 12.2999 172.784 12.2999C171.003 12.2999 169.559 10.8559 169.559 9.0746C169.559 7.29327 171.003 5.84794 172.784 5.84794C174.567 5.84794 176.011 7.29327 176.011 9.0746Z" fill="#023047"/>
<path d="M249.648 77.9559C249.648 81.1972 247.02 83.8252 243.777 83.8252C240.536 83.8252 237.908 81.1972 237.908 77.9559C237.908 74.7132 240.536 72.0852 243.777 72.0852C247.02 72.0852 249.648 74.7132 249.648 77.9559Z" fill="#023047"/>
<path d="M214.583 3.85591C214.583 5.63724 213.139 7.08127 211.357 7.08127C209.576 7.08127 208.131 5.63724 208.131 3.85591C208.131 2.07458 209.576 0.629251 211.357 0.629251C213.139 0.629251 214.583 2.07458 214.583 3.85591Z" fill="#023047"/>
<path d="M127.54 27.2226C127.54 29.7813 125.467 31.8546 122.908 31.8546C120.349 31.8546 118.275 29.7813 118.275 27.2226C118.275 24.6639 120.349 22.5893 122.908 22.5893C125.467 22.5893 127.54 24.6639 127.54 27.2226Z" fill="#023047"/>
</svg>
